<?xml version="1.0" encoding="UTF-8"?>
<svg version="1.1" xmlns="http://www.w3.org/2000/svg" width="1024" height="1024">
<path d="M0 0 C337.92 0 675.84 0 1024 0 C1024 337.92 1024 675.84 1024 1024 C686.08 1024 348.16 1024 0 1024 C0 686.08 0 348.16 0 0 Z " fill="#FDFEFE" transform="translate(0,0)"/>
<path d="M0 0 C6.46395753 2.5708922 10.51796691 7.12406916 14 13 C15.69967317 19.79869268 15 26.99206799 15 34 C112.68 34 210.36 34 311 34 C311 27.73 311 21.46 311 15 C311.66 13.35 312.32 11.7 313 10 C313.66 10 314.32 10 315 10 C315.13148438 9.11054688 315.13148438 9.11054688 315.265625 8.203125 C316.48177501 4.55467498 319.03295566 3.20130267 322.1953125 1.2109375 C327.89774884 -1.25111719 334.2639061 -1.14698753 340.17578125 0.66796875 C345.70458059 3.47527484 350.06657134 8.29631229 352.07104492 14.10229492 C353.21272132 18.23896358 353.22644524 22.1728983 353.125 26.4375 C353.11597656 27.16904297 353.10695313 27.90058594 353.09765625 28.65429688 C353.07436153 30.43634298 353.0385019 32.21821759 353 34 C354.22404541 33.97381592 355.44809082 33.94763184 356.70922852 33.9206543 C361.3218299 33.8290329 365.93435384 33.77235058 370.54760742 33.7253418 C372.53081866 33.70044928 374.51394064 33.66652223 376.49682617 33.62280273 C394.2752027 33.24109978 407.98816651 34.97993127 422 47 C422.66644531 47.55558594 423.33289063 48.11117187 424.01953125 48.68359375 C433.41159307 57.21625122 437.32071847 69.19271683 438.27607286 81.57944643 C438.39153872 85.51538479 438.4133065 89.44517203 438.39872742 93.38215637 C438.40417861 94.8948085 438.41093501 96.40745639 438.41886932 97.92009753 C438.4367671 102.04094938 438.43635337 106.16161986 438.43273985 110.28250134 C438.43211281 114.73973969 438.44876579 119.19691884 438.46325684 123.65412903 C438.48598956 131.36469278 438.49791873 139.07521151 438.50238609 146.78580666 C438.50886085 157.9338454 438.53182152 169.08180295 438.55872939 180.22980889 C438.60194759 198.31929149 438.63194268 216.40877066 438.65356445 234.49829102 C438.67458904 252.06438888 438.70187706 269.63045871 438.73754883 287.1965332 C438.74084707 288.82230968 438.74084707 288.82230968 438.74421193 290.48093013 C438.75528196 295.91861403 438.7664747 301.35629767 438.77772844 306.79398119 C438.87084318 351.86262939 438.94247374 396.93129326 439 442 C439.67039307 442.12334717 440.34078613 442.24669434 441.03149414 442.3737793 C441.91957764 442.54304932 442.80766113 442.71231934 443.72265625 442.88671875 C444.59929932 443.05131592 445.47594238 443.21591309 446.37915039 443.38549805 C450.52921397 444.35854975 454.17900498 446.15214175 458 448 C460.01913147 448.92040928 462.03999491 449.83702776 464.0625 450.75 C465.70850584 451.49962132 467.35440182 452.24948419 469 453 C469 453.66 469 454.32 469 455 C469.56074219 455.24492188 470.12148438 455.48984375 470.69921875 455.7421875 C488.9815225 465.73692741 497.74684356 485.70360745 503.375 504.58984375 C508.2959979 523.56644188 504.20940946 546.29516398 494.6875 563.1875 C491.94001949 567.70164002 488.93915541 571.88920174 485.578125 575.96484375 C483.91909046 577.98112862 483.91909046 577.98112862 482.7265625 580.4296875 C480.40054573 583.89240025 477.53156289 585.84681593 474.125 588.1875 C473.51269531 588.62513672 472.90039062 589.06277344 472.26953125 589.51367188 C468.96146784 591.83356645 465.85757841 593.68724993 462 595 C462 595.66 462 596.32 462 597 C442.09324924 607.32201891 417.83191077 611.40820992 395.84082031 605.10449219 C392.15698341 603.89051749 388.57074973 602.51197311 385 601 C384.03449219 600.61714844 383.06898438 600.23429688 382.07421875 599.83984375 C368.25754616 593.69175499 355.84879634 581.74317048 348 569 C348 568.34 348 567.68 348 567 C347.34 567 346.68 567 346 567 C345.67 565.02 345.34 563.04 345 561 C344.34 561 343.68 561 343 561 C336.86996036 547.87695397 336.86996036 547.87695397 336.953125 540.28125 C336.95989258 539.47751953 336.96666016 538.67378906 336.97363281 537.84570312 C336.98233398 537.23662109 336.99103516 536.62753906 337 536 C336.14200046 536.0018986 335.28400093 536.0037972 334.40000141 536.00575334 C283.5282122 536.11768628 232.65643608 536.2034543 181.78454833 536.25532665 C175.67391092 536.26158005 169.56327376 536.26805167 163.45263672 536.2746582 C162.23613824 536.27596976 161.01963976 536.27728131 159.76627769 536.2786326 C140.07865719 536.30037875 120.39110982 536.33979596 100.70353268 536.38576398 C80.49658789 536.43255055 60.28968136 536.46030007 40.08268464 536.47044247 C27.61766319 536.47729704 15.15284847 536.49893296 2.68789066 536.53958233 C-5.86418095 536.56604781 -14.41614596 536.57399235 -22.96825553 536.56750689 C-27.89963052 536.56430996 -32.83064471 536.56915 -37.76195526 536.59602737 C-42.28407861 536.62049357 -46.8056011 536.62150155 -51.32775305 536.60449447 C-52.95653651 536.60239489 -54.58535862 536.60862391 -56.21406688 536.62441591 C-73.60111872 536.78308513 -86.97803044 531.98245643 -99.5625 519.75 C-104 515.29223744 -104 515.29223744 -104 513 C-104.66 513 -105.32 513 -106 513 C-106 511.68 -106 510.36 -106 509 C-106.66 509 -107.32 509 -108 509 C-108.65746104 507.65144038 -109.30031975 506.29575969 -109.9375 504.9375 C-110.47697266 503.80634766 -110.47697266 503.80634766 -111.02734375 502.65234375 C-113.0459541 497.14777979 -113.12658582 491.44548641 -113.1398077 485.6368866 C-113.14275912 484.92587506 -113.14571055 484.21486352 -113.14875141 483.48230618 C-113.15739655 481.10562426 -113.15901884 478.72899125 -113.16062927 476.35229492 C-113.1653634 474.62865141 -113.17051473 472.90500901 -113.17604691 471.18136787 C-113.18992256 466.44888562 -113.19752792 461.71641105 -113.2040199 456.98391366 C-113.21040107 452.9237126 -113.22046965 448.86352407 -113.23058056 444.80333084 C-113.26386525 431.42966557 -113.28541709 418.05599269 -113.30378041 404.68229961 C-113.30857774 401.19912127 -113.31356077 397.71594322 -113.31858563 394.2327652 C-113.34955555 372.59178783 -113.37623376 350.95080776 -113.39300442 329.30981445 C-113.39695375 324.29980464 -113.40095677 319.28979487 -113.4050293 314.27978516 C-113.40603766 313.03461073 -113.40704602 311.78943631 -113.40808494 310.50652933 C-113.4250897 290.33825115 -113.46619924 270.1700957 -113.51705229 250.00187743 C-113.56885805 229.28506643 -113.59795042 208.56831852 -113.6052013 187.85144329 C-113.60985937 176.22390231 -113.62456742 164.59656245 -113.6649456 152.96908569 C-113.6992936 143.06625861 -113.71316543 133.16366899 -113.70052146 123.26078576 C-113.69470616 118.21172182 -113.6984793 113.1631598 -113.7286911 108.11417198 C-113.75617199 103.48362966 -113.75546634 98.85394304 -113.73318065 94.22338068 C-113.72997386 92.55643035 -113.73673086 90.88942147 -113.75497787 89.22256792 C-113.91034147 74.10244484 -110.55940111 61.44517868 -100 50 C-99.46761719 49.37738281 -98.93523437 48.75476563 -98.38671875 48.11328125 C-90.85286128 39.82423997 -79.80071815 34.56019144 -68.62103271 33.84857178 C-61.8517624 33.62890141 -55.08341101 33.72657336 -48.3125 33.8125 C-46.24284826 33.82757146 -44.17318593 33.84125551 -42.10351562 33.85351562 C-37.06874574 33.88633211 -32.03449137 33.93797929 -27 34 C-27.01812744 32.7615332 -27.03625488 31.52306641 -27.05493164 30.24707031 C-27.06959227 28.60742557 -27.08381051 26.96777683 -27.09765625 25.328125 C-27.11074829 24.51359863 -27.12384033 23.69907227 -27.1373291 22.85986328 C-27.18224245 15.76714754 -26.29623089 10.43571505 -21.24609375 5.171875 C-14.65258205 -0.71961353 -8.77353651 -0.98324116 0 0 Z " fill="#F0F0F0" transform="translate(345,236)"/>
<path d="M0 0 C6.46395753 2.5708922 10.51796691 7.12406916 14 13 C15.69967317 19.79869268 15 26.99206799 15 34 C112.68 34 210.36 34 311 34 C311 27.73 311 21.46 311 15 C311.66 13.35 312.32 11.7 313 10 C313.66 10 314.32 10 315 10 C315.13148438 9.11054688 315.13148438 9.11054688 315.265625 8.203125 C316.48177501 4.55467498 319.03295566 3.20130267 322.1953125 1.2109375 C327.89774884 -1.25111719 334.2639061 -1.14698753 340.17578125 0.66796875 C345.70458059 3.47527484 350.06657134 8.29631229 352.07104492 14.10229492 C353.21272132 18.23896358 353.22644524 22.1728983 353.125 26.4375 C353.11597656 27.16904297 353.10695313 27.90058594 353.09765625 28.65429688 C353.07436153 30.43634298 353.0385019 32.21821759 353 34 C354.22404541 33.97381592 355.44809082 33.94763184 356.70922852 33.9206543 C361.3218299 33.8290329 365.93435384 33.77235058 370.54760742 33.7253418 C372.53081866 33.70044928 374.51394064 33.66652223 376.49682617 33.62280273 C394.2752027 33.24109978 407.98816651 34.97993127 422 47 C422.66644531 47.55558594 423.33289063 48.11117187 424.01953125 48.68359375 C433.41159307 57.21625122 437.32071847 69.19271683 438.27607286 81.57944643 C438.39153872 85.51538479 438.4133065 89.44517203 438.39872742 93.38215637 C438.40417861 94.8948085 438.41093501 96.40745639 438.41886932 97.92009753 C438.4367671 102.04094938 438.43635337 106.16161986 438.43273985 110.28250134 C438.43211281 114.73973969 438.44876579 119.19691884 438.46325684 123.65412903 C438.48598956 131.36469278 438.49791873 139.07521151 438.50238609 146.78580666 C438.50886085 157.9338454 438.53182152 169.08180295 438.55872939 180.22980889 C438.60194759 198.31929149 438.63194268 216.40877066 438.65356445 234.49829102 C438.67458904 252.06438888 438.70187706 269.63045871 438.73754883 287.1965332 C438.74084707 288.82230968 438.74084707 288.82230968 438.74421193 290.48093013 C438.75528196 295.91861403 438.7664747 301.35629767 438.77772844 306.79398119 C438.87084318 351.86262939 438.94247374 396.93129326 439 442 C439.67039307 442.12334717 440.34078613 442.24669434 441.03149414 442.3737793 C441.91957764 442.54304932 442.80766113 442.71231934 443.72265625 442.88671875 C444.59929932 443.05131592 445.47594238 443.21591309 446.37915039 443.38549805 C450.52921397 444.35854975 454.17900498 446.15214175 458 448 C460.01913147 448.92040928 462.03999491 449.83702776 464.0625 450.75 C465.70850584 451.49962132 467.35440182 452.24948419 469 453 C469 453.66 469 454.32 469 455 C469.56074219 455.24492188 470.12148438 455.48984375 470.69921875 455.7421875 C488.9815225 465.73692741 497.74684356 485.70360745 503.375 504.58984375 C508.2959979 523.56644188 504.20940946 546.29516398 494.6875 563.1875 C491.94001949 567.70164002 488.93915541 571.88920174 485.578125 575.96484375 C483.91909046 577.98112862 483.91909046 577.98112862 482.7265625 580.4296875 C480.40054573 583.89240025 477.53156289 585.84681593 474.125 588.1875 C473.51269531 588.62513672 472.90039062 589.06277344 472.26953125 589.51367188 C468.96146784 591.83356645 465.85757841 593.68724993 462 595 C462 595.66 462 596.32 462 597 C442.09324924 607.32201891 417.83191077 611.40820992 395.84082031 605.10449219 C392.15698341 603.89051749 388.57074973 602.51197311 385 601 C384.03449219 600.61714844 383.06898438 600.23429688 382.07421875 599.83984375 C368.25754616 593.69175499 355.84879634 581.74317048 348 569 C348 568.34 348 567.68 348 567 C347.34 567 346.68 567 346 567 C345.67 565.02 345.34 563.04 345 561 C344.34 561 343.68 561 343 561 C336.86996036 547.87695397 336.86996036 547.87695397 336.953125 540.28125 C336.95989258 539.47751953 336.96666016 538.67378906 336.97363281 537.84570312 C336.98233398 537.23662109 336.99103516 536.62753906 337 536 C336.14200046 536.0018986 335.28400093 536.0037972 334.40000141 536.00575334 C283.5282122 536.11768628 232.65643608 536.2034543 181.78454833 536.25532665 C175.67391092 536.26158005 169.56327376 536.26805167 163.45263672 536.2746582 C162.23613824 536.27596976 161.01963976 536.27728131 159.76627769 536.2786326 C140.07865719 536.30037875 120.39110982 536.33979596 100.70353268 536.38576398 C80.49658789 536.43255055 60.28968136 536.46030007 40.08268464 536.47044247 C27.61766319 536.47729704 15.15284847 536.49893296 2.68789066 536.53958233 C-5.86418095 536.56604781 -14.41614596 536.57399235 -22.96825553 536.56750689 C-27.89963052 536.56430996 -32.83064471 536.56915 -37.76195526 536.59602737 C-42.28407861 536.62049357 -46.8056011 536.62150155 -51.32775305 536.60449447 C-52.95653651 536.60239489 -54.58535862 536.60862391 -56.21406688 536.62441591 C-73.60111872 536.78308513 -86.97803044 531.98245643 -99.5625 519.75 C-104 515.29223744 -104 515.29223744 -104 513 C-104.66 513 -105.32 513 -106 513 C-106 511.68 -106 510.36 -106 509 C-106.66 509 -107.32 509 -108 509 C-108.65746104 507.65144038 -109.30031975 506.29575969 -109.9375 504.9375 C-110.47697266 503.80634766 -110.47697266 503.80634766 -111.02734375 502.65234375 C-113.0459541 497.14777979 -113.12658582 491.44548641 -113.1398077 485.6368866 C-113.14275912 484.92587506 -113.14571055 484.21486352 -113.14875141 483.48230618 C-113.15739655 481.10562426 -113.15901884 478.72899125 -113.16062927 476.35229492 C-113.1653634 474.62865141 -113.17051473 472.90500901 -113.17604691 471.18136787 C-113.18992256 466.44888562 -113.19752792 461.71641105 -113.2040199 456.98391366 C-113.21040107 452.9237126 -113.22046965 448.86352407 -113.23058056 444.80333084 C-113.26386525 431.42966557 -113.28541709 418.05599269 -113.30378041 404.68229961 C-113.30857774 401.19912127 -113.31356077 397.71594322 -113.31858563 394.2327652 C-113.34955555 372.59178783 -113.37623376 350.95080776 -113.39300442 329.30981445 C-113.39695375 324.29980464 -113.40095677 319.28979487 -113.4050293 314.27978516 C-113.40603766 313.03461073 -113.40704602 311.78943631 -113.40808494 310.50652933 C-113.4250897 290.33825115 -113.46619924 270.1700957 -113.51705229 250.00187743 C-113.56885805 229.28506643 -113.59795042 208.56831852 -113.6052013 187.85144329 C-113.60985937 176.22390231 -113.62456742 164.59656245 -113.6649456 152.96908569 C-113.6992936 143.06625861 -113.71316543 133.16366899 -113.70052146 123.26078576 C-113.69470616 118.21172182 -113.6984793 113.1631598 -113.7286911 108.11417198 C-113.75617199 103.48362966 -113.75546634 98.85394304 -113.73318065 94.22338068 C-113.72997386 92.55643035 -113.73673086 90.88942147 -113.75497787 89.22256792 C-113.91034147 74.10244484 -110.55940111 61.44517868 -100 50 C-99.46761719 49.37738281 -98.93523437 48.75476563 -98.38671875 48.11328125 C-90.85286128 39.82423997 -79.80071815 34.56019144 -68.62103271 33.84857178 C-61.8517624 33.62890141 -55.08341101 33.72657336 -48.3125 33.8125 C-46.24284826 33.82757146 -44.17318593 33.84125551 -42.10351562 33.85351562 C-37.06874574 33.88633211 -32.03449137 33.93797929 -27 34 C-27.01812744 32.7615332 -27.03625488 31.52306641 -27.05493164 30.24707031 C-27.06959227 28.60742557 -27.08381051 26.96777683 -27.09765625 25.328125 C-27.11074829 24.51359863 -27.12384033 23.69907227 -27.1373291 22.85986328 C-27.18224245 15.76714754 -26.29623089 10.43571505 -21.24609375 5.171875 C-14.65258205 -0.71961353 -8.77353651 -0.98324116 0 0 Z M-103 159 C-103.061875 213.945 -103.12375 268.89 -103.1875 325.5 C-103.21481201 342.86431641 -103.24212402 360.22863281 -103.27026367 378.11914062 C-103.28029549 393.65203768 -103.28029549 393.65203768 -103.28633118 409.18493652 C-103.28913192 416.11628257 -103.30014971 423.04755631 -103.31672668 429.97888184 C-103.33581297 437.97123103 -103.3445101 445.96351072 -103.34033485 453.95588288 C-103.33852634 458.04496938 -103.34140853 462.13390051 -103.35764539 466.22295856 C-103.37224294 469.92163829 -103.37297119 473.62005275 -103.36270332 477.31874466 C-103.36083081 479.28731876 -103.37376094 481.25588982 -103.38724232 483.22441864 C-103.35347716 489.89392794 -102.84191059 494.94149188 -100 501 C-99.62359375 501.8146875 -99.2471875 502.629375 -98.859375 503.46875 C-93.26379181 513.71418401 -86.30242896 520.75482801 -75.28527623 525.0611046 C-71.66925341 526.0945237 -68.66656016 526.24955124 -64.9082365 526.24888897 C-64.21444494 526.25149625 -63.52065339 526.25410354 -62.80583784 526.25678983 C-60.48176831 526.26308459 -58.15796953 526.25513003 -55.83390808 526.24723816 C-54.15064768 526.24882653 -52.46738791 526.25129041 -50.78412992 526.25455457 C-46.15914503 526.26097036 -41.53424764 526.25489817 -36.9092685 526.24679029 C-31.92157531 526.24021502 -26.93389194 526.24516133 -21.94619751 526.24867249 C-12.17690369 526.25371551 -2.4076437 526.24807198 7.36164591 526.23882218 C18.72934547 526.22844507 30.09703768 526.22850817 41.46474107 526.22899476 C61.73878962 526.22949545 82.01282238 526.220331 102.28686523 526.20581055 C121.97957649 526.19171367 141.67227386 526.18464016 161.36499023 526.18530273 C162.57855569 526.18534269 163.79212115 526.18538265 165.04246131 526.18542381 C166.25388924 526.18546417 167.46531716 526.18550452 168.71345502 526.1855461 C191.1102915 526.18623505 213.50712206 526.18035222 235.90395663 526.17139288 C243.83694491 526.16837088 251.76993212 526.16731267 259.70292091 526.16686058 C269.36017963 526.16618006 279.01742836 526.16173788 288.67468283 526.15252777 C293.60637583 526.14789567 298.53805603 526.14486946 303.46975136 526.14612198 C307.97658907 526.14721114 312.48339838 526.14373492 316.99023017 526.13647345 C318.62801101 526.13464928 320.26579477 526.13454025 321.90357576 526.13624074 C324.11489903 526.13828397 326.32612726 526.13428104 328.53744221 526.12863445 C329.77017945 526.12793003 331.00291669 526.1272256 332.2730096 526.12649983 C334.91372458 526.31080247 334.91372458 526.31080247 336 525 C336.20546084 521.16473091 336.34582655 517.33572725 336.4296875 513.49609375 C336.62482231 508.30062936 337.43012527 503.92945335 339.26196289 499.05664062 C340.03920481 496.89075048 340.56021575 494.74428045 341.0625 492.5 C341.5265625 490.7675 341.5265625 490.7675 342 489 C342.66 488.67 343.32 488.34 344 488 C344.70961131 486.06526564 345.41680724 484.1295847 346.10742188 482.18798828 C347.50949891 478.75105875 349.54932421 475.90665912 351.75 472.9375 C352.19537109 472.32898193 352.64074219 471.72046387 353.09960938 471.09350586 C365.85591622 453.9401387 385.03959147 443.49340142 406 440 C416.89 439.505 416.89 439.505 428 439 C428 346.6 428 254.2 428 159 C252.77 159 77.54 159 -103 159 Z " fill="#555C6C" transform="translate(345,236)"/>
<path d="M0 0 C2.02147442 0.01507233 4.04295969 0.02875622 6.06445312 0.04101562 C10.9807401 0.07382329 15.8964985 0.12546542 20.8125 0.1875 C20.83755615 1.48896973 20.8626123 2.79043945 20.88842773 4.13134766 C20.9828047 8.97323971 21.08295085 13.81499842 21.18481445 18.65673828 C21.22804894 20.74980544 21.26973185 22.84290526 21.30981445 24.93603516 C21.36779601 27.94964426 21.43140942 30.96309071 21.49609375 33.9765625 C21.51280624 34.90804108 21.52951874 35.83951965 21.54673767 36.79922485 C21.65001847 41.35844252 21.90024645 45.70090071 22.8125 50.1875 C23.8025 50.1875 24.7925 50.1875 25.8125 50.1875 C26.82601664 51.84598177 27.82370795 53.51415961 28.8125 55.1875 C34.08450695 59.81657927 37.09354206 60.48345833 43.98828125 60.40234375 C49.17147177 60.00804848 52.43602064 58.30789017 56.5 55 C69.85062773 38.76275005 62.8125 23.56698336 62.8125 0.1875 C160.4925 0.1875 258.1725 0.1875 358.8125 0.1875 C359.1425 15.3675 359.4725 30.5475 359.8125 46.1875 C360.4725 48.4975 361.1325 50.8075 361.8125 53.1875 C365.32650668 54.72836322 365.32650668 54.72836322 368.8125 55.1875 C368.8125 55.8475 368.8125 56.5075 368.8125 57.1875 C370.4625 57.5175 372.1125 57.8475 373.8125 58.1875 C373.8125 58.8475 373.8125 59.5075 373.8125 60.1875 C381.06880835 60.66769688 386.73432021 60.47376358 392.8125 56.1875 C393.3384375 55.64738281 393.864375 55.10726562 394.40625 54.55078125 C395.8125 53.1875 395.8125 53.1875 397.8125 53.1875 C397.93625 52.65125 398.06 52.115 398.1875 51.5625 C398.8125 49.1875 398.8125 49.1875 399.82568359 46.66357422 C401.11330281 42.12791802 401.16696352 37.88845949 401.2265625 33.1953125 C401.24592865 32.24937225 401.2652948 31.30343201 401.2852478 30.3288269 C401.34477049 27.32347478 401.39131946 24.31808379 401.4375 21.3125 C401.47570492 19.26821296 401.51475811 17.22394158 401.5546875 15.1796875 C401.65044954 10.1824197 401.73458114 5.18507658 401.8125 0.1875 C407.85894231 0.03791154 413.90428113 -0.07029655 419.95214844 -0.14208984 C422.00442292 -0.17205241 424.05657166 -0.21283783 426.10839844 -0.26513672 C448.15090165 -0.81244327 448.15090165 -0.81244327 457.8125 6.1875 C458.42899414 6.62255859 459.04548828 7.05761719 459.68066406 7.50585938 C465.3625124 11.88303936 469.67554393 16.78288136 472.8125 23.1875 C473.8025 24.1775 474.7925 25.1675 475.8125 26.1875 C475.8125 52.2575 475.8125 78.3275 475.8125 105.1875 C300.9125 105.1875 126.0125 105.1875 -54.1875 105.1875 C-54.1875 24.52083333 -54.1875 24.52083333 -46.1875 15.1875 C-45.8575 14.445 -45.5275 13.7025 -45.1875 12.9375 C-44.8575 12.36 -44.5275 11.7825 -44.1875 11.1875 C-43.589375 11.043125 -42.99125 10.89875 -42.375 10.75 C-39.06075658 9.89776598 -37.46947035 7.64962591 -35.1875 5.1875 C-27.13625438 -2.86374562 -10.42124563 -0.13547364 0 0 Z " fill="#747E99" transform="translate(297.1875,279.8125)"/>
<path d="M0 0 C0.73347656 0.3815625 1.46695313 0.763125 2.22265625 1.15625 C12.18285726 6.35593166 20.27461325 11.58993746 25 22 C25.81906145 23.52856691 26.65251575 25.04950664 27.5 26.5625 C27.90992188 27.30371094 28.31984375 28.04492188 28.7421875 28.80859375 C29.97618872 30.95851513 31.28367706 33.04072873 32.625 35.125 C34.85541215 38.64191947 36.46599243 42.12845709 38 46 C38.35231689 46.77770752 38.70463379 47.55541504 39.06762695 48.35668945 C40.09798203 51.27778251 40.24372904 53.51530198 40.23046875 56.60546875 C40.22853516 57.67216797 40.22660156 58.73886719 40.22460938 59.83789062 C40.21236328 60.94326172 40.20011719 62.04863281 40.1875 63.1875 C40.1865332 64.81655273 40.1865332 64.81655273 40.18554688 66.47851562 C40.08781006 84.55982724 40.08781006 84.55982724 36.046875 92.83203125 C35.01895959 94.96073668 34.17980866 97.09106386 33.375 99.3125 C31.26080363 104.98239027 29.29825813 107.70174187 25 112 C23.43152983 114.08078455 21.91744669 116.18896855 20.4296875 118.328125 C19 120 19 120 16 121 C15.84144531 121.63421875 15.68289063 122.2684375 15.51953125 122.921875 C15 125 15 125 13.57421875 126.203125 C12.95160156 126.54859375 12.32898438 126.8940625 11.6875 127.25 C7.96970168 129.39642673 4.46365674 131.73779563 0.9375 134.1875 C-3.39341481 137.10401478 -6.90386214 138.98077243 -12 140 C-12.33 140.33 -12.66 140.66 -13 141 C-22.26439857 143.29515842 -31.53755013 143.28985765 -41 143 C-42.13953125 142.97035156 -43.2790625 142.94070313 -44.453125 142.91015625 C-52.1306707 142.52998792 -60.04447098 141.44495541 -67 138 C-67.859375 135.86328125 -67.859375 135.86328125 -68 134 C-69.093125 133.731875 -70.18625 133.46375 -71.3125 133.1875 C-74.93102471 132.02221238 -75.6015691 131.59830014 -78 129 C-79.03125 128.484375 -80.0625 127.96875 -81.125 127.4375 C-89.26835105 122.91534123 -94.17687406 115.6179634 -97 107 C-97.9590625 106.05833984 -97.9590625 106.05833984 -98.9375 105.09765625 C-104.46766273 99.47322938 -105.50416422 90.56149558 -106 83 C-106.66 83 -107.32 83 -108 83 C-108 82.01 -108 81.02 -108 80 C-108.66 80 -109.32 80 -110 80 C-110.72008913 48.396088 -110.72008913 48.396088 -104.90234375 37.7265625 C-103.89340777 35.99235455 -103.89340777 35.99235455 -103.56640625 33.8359375 C-103.37949219 33.23007812 -103.19257812 32.62421875 -103 32 C-101.515 31.505 -101.515 31.505 -100 31 C-99.54625 30.236875 -99.0925 29.47375 -98.625 28.6875 C-97 26 -97 26 -94.75 24.3125 C-91.31565063 21.42452439 -89.2443004 18.10485794 -86.84375 14.33984375 C-84.8001073 11.74632261 -82.88232701 10.56126046 -80 9 C-78.7625 7.9790625 -78.7625 7.9790625 -77.5 6.9375 C-75.01847786 5.01432034 -72.93339729 4.05301441 -70 3 C-66.72901926 1.59815111 -66.07819897 1.11729845 -64 -2 C-61.2421875 -3.1328125 -61.2421875 -3.1328125 -57.875 -4.125 C-56.77929688 -4.45757813 -55.68359375 -4.79015625 -54.5546875 -5.1328125 C-37.45347501 -9.30475665 -15.25246614 -9.0933247 0 0 Z " fill="#3455B6" transform="translate(799,691)"/>
<path d="M0 0 C3.1850357 1.76015131 3.83296972 2.49890916 5 6 C5.57404636 9.27206423 5.83519177 10.87325082 5 14 C2.37377813 17.72224592 -0.58124444 20.98853301 -4 24 C-4.66 24 -5.32 24 -6 24 C-6.32291016 24.83724609 -6.32291016 24.83724609 -6.65234375 25.69140625 C-9.03947178 29.78066035 -12.97718021 32.44503979 -16.56640625 35.46484375 C-19.09602286 37.79329004 -19.09602286 37.79329004 -20.06640625 40.56640625 C-20.22466016 43.09268411 -20.22466016 43.09268411 -18.5234375 45.0625 C-17.45996094 46.0215625 -17.45996094 46.0215625 -16.375 47 C-15.63507812 47.68707031 -14.89515625 48.37414062 -14.1328125 49.08203125 C-13.42898438 49.71496094 -12.72515625 50.34789062 -12 51 C-9.55442603 53.38999274 -7.26114243 55.65781336 -5.1875 58.375 C-2.62892939 61.44528473 0.23393042 63.88961525 3.29296875 66.44921875 C5.81327433 68.73883274 5.98440163 69.86221441 6.375 73.3125 C6 77 6 77 4 79.9375 C1.0088171 81.99393825 -1.01862851 82.97824505 -4.69140625 82.7421875 C-12.28938947 80.29951946 -18.25183058 73.02341895 -23.24609375 67.06640625 C-25.32415982 64.61808341 -27.47494732 62.26517737 -29.6875 59.9375 C-30.41324219 59.16277344 -31.13898437 58.38804687 -31.88671875 57.58984375 C-33.79680316 55.80785361 -33.79680316 55.80785361 -35.78125 56.05493164 C-39.08742609 57.46318512 -41.20016124 59.95395233 -43.61328125 62.53125 C-44.70725737 63.66317125 -45.80167226 64.79466857 -46.89648438 65.92578125 C-48.60730256 67.71096149 -50.31297801 69.50050626 -52.01049805 71.29833984 C-53.65640046 73.03521699 -55.32076815 74.75264572 -56.98828125 76.46875 C-57.48644852 77.00729614 -57.98461578 77.54584229 -58.49787903 78.10070801 C-62.12205892 81.80030813 -64.84299427 82.88096576 -70 83 C-73.57387602 81.41161066 -74.81089572 80.28365642 -77 77 C-77.62714704 73.44616676 -77.72034997 71.08478738 -75.6796875 68.01171875 C-73.86429631 65.91547107 -71.9703262 63.95100928 -70 62 C-69.42507813 61.40058594 -68.85015625 60.80117188 -68.2578125 60.18359375 C-65.23677979 57.07206928 -62.08339983 54.1593943 -58.8125 51.3125 C-58.14992188 50.73371094 -57.48734375 50.15492188 -56.8046875 49.55859375 C-55.36338194 48.31382986 -53.90343908 47.0906568 -52.4375 45.875 C-50.74820985 44.08946204 -50.74820985 44.08946204 -51.10986328 41.70532227 C-52.28407598 38.13663029 -54.1127376 36.44986054 -56.8046875 33.83984375 C-57.28447052 33.36809219 -57.76425354 32.89634064 -58.25857544 32.41029358 C-59.78818198 30.90958358 -61.33079196 29.42316786 -62.875 27.9375 C-64.40939966 26.44576273 -65.94090804 24.95117047 -67.47000122 23.45399475 C-68.86004606 22.09540908 -70.25771169 20.74463366 -71.65576172 19.39428711 C-76.86588369 14.0729305 -76.86588369 14.0729305 -77.4375 9.5 C-77 6 -77 6 -75.125 3.625 C-71.30242225 0.70185231 -68.82855537 0.3769606 -64 1 C-56.36274948 6.25439494 -50.05652467 13.98232758 -43.71484375 20.67578125 C-42.90660156 21.50464844 -42.09835937 22.33351563 -41.265625 23.1875 C-40.54149414 23.94417969 -39.81736328 24.70085938 -39.07128906 25.48046875 C-37.17159891 27.16533193 -37.17159891 27.16533193 -35.09790039 27.09985352 C-31.87660435 25.41104417 -29.62028553 22.84169062 -27.16796875 20.21484375 C-26.02857675 19.03264196 -24.88858392 17.85101901 -23.74804688 16.66992188 C-21.96338041 14.80468134 -20.18472158 12.93454384 -18.41674805 11.0534668 C-16.70361583 9.23736072 -14.96908656 7.44401941 -13.23046875 5.65234375 C-12.45040718 4.80397194 -12.45040718 4.80397194 -11.65458679 3.9384613 C-7.84895335 0.05619143 -5.36276208 -0.71629371 0 0 Z " fill="#EAECED" transform="translate(800,717)"/>
<path d="M0 0 C4.33320395 -0.08772579 8.66617668 -0.14063579 13 -0.1875 C14.22074219 -0.21263672 15.44148437 -0.23777344 16.69921875 -0.26367188 C25.28641484 -0.33329779 32.42670894 0.02503963 39 6.1875 C39.86625 6.98220703 39.86625 6.98220703 40.75 7.79296875 C41.1625 8.19128906 41.575 8.58960937 42 9 C45.69989794 7.32044107 48.26692644 5.08369792 51.21875 2.33984375 C54.99088958 -0.49753317 59.162642 -0.11770771 63.734375 -0.09765625 C65.02988281 -0.09443359 66.32539062 -0.09121094 67.66015625 -0.08789062 C69.02343817 -0.07953598 70.38671942 -0.07107104 71.75 -0.0625 C73.12890465 -0.05748168 74.50781104 -0.05291935 75.88671875 -0.04882812 C79.25785659 -0.03704093 82.62890628 -0.02058635 86 0 C86.12484952 4.86913141 86.05467734 8.83596797 84.5 13.5 C84.2215625 14.3559375 83.943125 15.211875 83.65625 16.09375 C83.4396875 16.7228125 83.223125 17.351875 83 18 C82.34 18 81.68 18 81 18 C80.79375 18.721875 80.5875 19.44375 80.375 20.1875 C77.66985045 25.72076044 72.55211611 28.73565684 67 31 C63.40970179 31.44811149 59.84524825 31.44430462 56.23046875 31.43359375 C55.19489334 31.4388356 54.15931793 31.44407745 53.09236145 31.44947815 C50.90622858 31.45588686 48.72006117 31.4545763 46.53393555 31.44604492 C43.20883914 31.43755449 39.88547295 31.46628242 36.56054688 31.49804688 C34.42968801 31.49965968 32.29882613 31.49907984 30.16796875 31.49609375 C28.69096748 31.51294472 28.69096748 31.51294472 27.18412781 31.53013611 C19.73360866 31.45585698 13.3463751 30.01740941 7.6953125 24.921875 C2.91686065 18.31287194 -0.18247631 13.04168923 -0.06640625 4.74609375 C-0.05681885 3.85462646 -0.04723145 2.96315918 -0.03735352 2.04467773 C-0.02502686 1.36993408 -0.0127002 0.69519043 0 0 Z " fill="#5A5F70" transform="translate(696,111)"/>
<path d="M0 0 C1.69286133 -0.02416992 1.69286133 -0.02416992 3.41992188 -0.04882812 C10.23436489 -0.05279232 15.77188415 0.69259624 22.0625 3.3125 C23.36380859 3.78236328 23.36380859 3.78236328 24.69140625 4.26171875 C26.48177083 4.9453125 28.27213542 5.62890625 30.0625 6.3125 C30.0625 6.9725 30.0625 7.6325 30.0625 8.3125 C30.75859375 8.38726563 31.4546875 8.46203125 32.171875 8.5390625 C35.82421866 9.51631121 38.3873211 11.39007543 41.3125 13.6875 C41.88242676 14.13448242 42.45235352 14.58146484 43.03955078 15.04199219 C53.51272265 23.51844839 60.80399807 34.53699421 65.0625 47.3125 C65.17882729 48.83016539 65.23746239 50.3529346 65.25 51.875 C65.26417969 52.66003906 65.27835938 53.44507813 65.29296875 54.25390625 C65.0625 56.3125 65.0625 56.3125 63.0625 58.3125 C59.4375 58.4375 59.4375 58.4375 56.0625 58.3125 C55.75957031 57.49007812 55.45664062 56.66765625 55.14453125 55.8203125 C49.58074004 40.99494884 43.88708479 28.80251225 29.71484375 20.46875 C29.16957031 20.0871875 28.62429688 19.705625 28.0625 19.3125 C28.0625 18.6525 28.0625 17.9925 28.0625 17.3125 C25.39313716 16.56408051 22.72118624 15.82950925 20.04296875 15.11328125 C18.33121522 14.65337368 16.62271983 14.17984236 14.92578125 13.66796875 C2.13673934 10.1754799 -14.58827492 11.13098605 -26.55078125 16.9296875 C-40.70607028 25.13095152 -50.0692607 36.0600681 -54.625 51.8125 C-54.83511719 52.6271875 -55.04523438 53.441875 -55.26171875 54.28125 C-55.9375 56.3125 -55.9375 56.3125 -57.9375 58.3125 C-60.9375 58.625 -60.9375 58.625 -63.9375 58.3125 C-66.69258475 54.17987288 -66.86481419 51.06339734 -65.9375 46.3125 C-61.05302641 32.92861201 -52.46789837 20.75846505 -40.9375 12.3125 C-39.65939453 11.80203125 -39.65939453 11.80203125 -38.35546875 11.28125 C-35.92401088 10.49223433 -35.92401088 10.49223433 -34.48046875 8.84765625 C-32.33675206 6.71479383 -30.03976065 5.8894797 -27.25 4.75 C-25.75919922 4.12931641 -25.75919922 4.12931641 -24.23828125 3.49609375 C-15.96226207 0.52847977 -8.75901128 -0.02492604 0 0 Z " fill="#4F5667" transform="translate(507.9375,582.6875)"/>
<path d="M0 0 C7.48830176 0.27344922 7.48830176 0.27344922 11.34375 2.4765625 C15.05515865 6.78658544 15.53630621 9.85446673 15.57177734 15.54296875 C15.58185318 16.55833206 15.58185318 16.55833206 15.59213257 17.59420776 C15.61108994 19.82590117 15.61503516 22.05729365 15.6171875 24.2890625 C15.6236156 25.84318159 15.63034397 27.39729947 15.63735962 28.95141602 C15.64932568 32.206246 15.653041 35.46096989 15.65185547 38.71582031 C15.65165199 42.88572226 15.67898628 47.05494488 15.71339989 51.22468567 C15.73563677 54.43317795 15.73969406 57.64150568 15.73863602 60.85006714 C15.74099559 62.38746488 15.74983924 63.92486692 15.76530075 65.46218872 C15.78490294 67.61199626 15.77914796 69.76032479 15.76708984 71.91015625 C15.76993988 73.13275146 15.77278992 74.35534668 15.77572632 75.61499023 C15.18959415 79.30332178 14.23300765 80.50851899 11.28125 82.7265625 C10.62125 82.7265625 9.96125 82.7265625 9.28125 82.7265625 C9.28125 83.3865625 9.28125 84.0465625 9.28125 84.7265625 C7.34405622 84.78062372 5.40643079 84.81938275 3.46875 84.8515625 C1.85033203 84.88636719 1.85033203 84.88636719 0.19921875 84.921875 C-2.71875 84.7265625 -2.71875 84.7265625 -5.71875 82.7265625 C-8.13579246 79.23141726 -7.9897785 75.92040773 -8.02514648 71.75830078 C-8.03347 71.06509735 -8.04179352 70.37189392 -8.05036926 69.65768433 C-8.07442458 67.37069041 -8.08323563 65.08398193 -8.08984375 62.796875 C-8.09881334 61.20270707 -8.10793525 59.60854 -8.11720276 58.01437378 C-8.13368303 54.67378699 -8.14139113 51.33330031 -8.14428711 47.99267578 C-8.14967072 43.71971471 -8.18735283 39.4476991 -8.23303127 35.17500496 C-8.26282712 31.88236078 -8.2700112 28.58994362 -8.27101326 25.29717636 C-8.27521042 23.72233626 -8.28762461 22.14749516 -8.30853081 20.57278824 C-8.33550105 18.3656965 -8.33060578 16.16078768 -8.31811523 13.95361328 C-8.32318588 12.6999295 -8.32825653 11.44624573 -8.33348083 10.15457153 C-7.44804576 5.21699678 -5.12326644 1.36914879 0 0 Z " fill="#ECEEEF" transform="translate(673.71875,245.2734375)"/>
<path d="M0 0 C2.75569447 2.18159145 4.43588747 3.87177494 6 7 C6.11768939 9.21427815 6.16985212 11.43212999 6.19287109 13.64941406 C6.20104858 14.33257187 6.20922607 15.01572968 6.21765137 15.71958923 C6.2425028 17.98492558 6.25902228 20.25019918 6.2734375 22.515625 C6.27876118 23.28961388 6.28408485 24.06360275 6.28956985 24.86104584 C6.31630278 28.95927439 6.33567552 33.0574725 6.35009766 37.15576172 C6.36672908 41.38389509 6.41149272 45.6112465 6.4624691 49.83908463 C6.49617034 53.09396227 6.50767824 56.34865515 6.51332474 59.6036911 C6.52003137 61.16180128 6.53523839 62.71989955 6.55921555 64.27783966 C6.59092956 66.46353781 6.59089593 68.64713885 6.58349609 70.83300781 C6.59562637 72.69593475 6.59562637 72.69593475 6.60800171 74.59649658 C5.79555638 79.14444509 4.26267892 80.77103731 1 84 C-1.68359375 84.83203125 -1.68359375 84.83203125 -4.4375 84.8125 C-5.34371094 84.83957031 -6.24992187 84.86664063 -7.18359375 84.89453125 C-10.74622002 83.76298976 -12.35964705 82.40237936 -14.71443176 79.53138733 C-17.60515347 73.83932363 -16.80689653 66.95935676 -16.7265625 60.70703125 C-16.72552407 59.11236066 -16.72656421 57.51768748 -16.72958374 55.92301941 C-16.72940488 52.59159809 -16.70866469 49.26115076 -16.67236328 45.92993164 C-16.62687672 41.6624561 -16.62592577 37.39639475 -16.63939857 33.12874317 C-16.64608236 29.84038235 -16.63281256 26.55234353 -16.61314011 23.26404381 C-16.60545119 21.69040296 -16.60313345 20.11672627 -16.6063118 18.54306984 C-16.60705432 16.34548278 -16.5817929 14.14970709 -16.54931641 11.95239258 C-16.54010162 10.70331619 -16.53088684 9.45423981 -16.52139282 8.16731262 C-15.90509226 4.42346253 -14.99060562 3.26114878 -12 1 C-7.94586996 -0.35137668 -4.23418885 -0.68341294 0 0 Z " fill="#EEEFEF" transform="translate(344,246)"/>
<path d="M0 0 C11.82003099 -0.63796269 22.59732403 0.0795131 32.0625 7.8125 C33.06990234 8.75029297 33.06990234 8.75029297 34.09765625 9.70703125 C35.87479367 11.18576285 35.87479367 11.18576285 37.87109375 10.94921875 C40.20306703 10.00811999 40.20306703 10.00811999 42.66796875 7.95703125 C47.06268717 5.37584259 50.32519491 5.51008598 55.3125 5.6875 C56.11623047 5.69716797 56.91996094 5.70683594 57.74804688 5.71679688 C63.21527516 5.81796039 68.57464594 6.33067347 74 7 C74.48637835 14.94417968 71.83878603 20.77870368 67 27 C55.51417255 35.67297175 37.19738404 32.72750998 23.53540039 30.90942383 C10.12544598 28.9084059 10.12544598 28.9084059 5.625 23.1875 C4.72735339 21.80612161 3.84999054 20.41120224 3 19 C2.38125 18.113125 1.7625 17.22625 1.125 16.3125 C-0.68562124 10.98122634 -0.22341962 5.57721563 0 0 Z " fill="#595D6B" transform="translate(122,184)"/>
<path d="M0 0 C1.45732544 0.0151062 1.45732544 0.0151062 2.9440918 0.03051758 C5.83813376 0.06934619 8.73133054 0.12754337 11.625 0.1875 C12.43050293 0.19620117 13.23600586 0.20490234 14.06591797 0.21386719 C23.89255438 0.33795709 31.22772721 1.21742447 38.6484375 8.05078125 C43.82445161 13.49087771 45.72203015 18.38216568 45.66015625 25.91015625 C45.65508057 26.71332275 45.65000488 27.51648926 45.64477539 28.34399414 C45.63824951 28.95235107 45.63172363 29.56070801 45.625 30.1875 C21.49608592 31.05329046 21.49608592 31.05329046 14.625 26.1875 C12.60529395 24.27948277 11.20328093 22.50231203 9.625 20.1875 C7.08328796 21.36059786 4.89616256 22.6783497 2.5625 24.25 C-1.54803647 26.9612049 -4.31729187 27.30962035 -9.13671875 27.28515625 C-10.25498047 27.28193359 -11.37324219 27.27871094 -12.52539062 27.27539062 C-13.69263672 27.26701172 -14.85988281 27.25863281 -16.0625 27.25 C-17.24134766 27.24548828 -18.42019531 27.24097656 -19.63476562 27.23632812 C-22.54822789 27.22453273 -25.46158863 27.2080727 -28.375 27.1875 C-28.40208567 25.58342672 -28.42143483 23.9792215 -28.4375 22.375 C-28.44910156 21.48167969 -28.46070313 20.58835937 -28.47265625 19.66796875 C-28.375 17.1875 -28.375 17.1875 -27.375 14.1875 C-26.715 14.1875 -26.055 14.1875 -25.375 14.1875 C-25.28605469 13.43855469 -25.19710937 12.68960938 -25.10546875 11.91796875 C-24.24079231 8.68583595 -23.21365722 7.64121898 -20.6875 5.5 C-20.02363281 4.91863281 -19.35976563 4.33726562 -18.67578125 3.73828125 C-12.75682851 -0.25123359 -6.87832487 -0.09767825 0 0 Z " fill="#5E6372" transform="translate(890.375,808.8125)"/>
<path d="M0 0 C0.66 0 1.32 0 2 0 C2 0.66 2 1.32 2 2 C2.84111328 2.36738281 2.84111328 2.36738281 3.69921875 2.7421875 C21.9815225 12.73692741 30.74684356 32.70360745 36.375 51.58984375 C41.31671127 70.64631785 37.20575751 93.49361835 27.5 110.375 C25.09528236 114.31563406 22.63324054 118.20813363 20 122 C19.71125 121.38125 19.4225 120.7625 19.125 120.125 C18.06279958 117.86674235 18.06279958 117.86674235 16 116 C16.76057733 109.154804 20.66764658 103.99886934 25 99 C26.38868516 96.89960669 26.38868516 96.89960669 27 95 C26.505 94.01 26.505 94.01 26 93 C26.25111302 91.0998004 26.57075687 89.20850437 26.921875 87.32421875 C28.15488687 79.78810835 28.29659718 72.43502224 28.25 64.8125 C28.25773438 63.50474609 28.26546875 62.19699219 28.2734375 60.84960938 C28.27085937 59.60630859 28.26828125 58.36300781 28.265625 57.08203125 C28.26336914 55.96030518 28.26111328 54.8385791 28.25878906 53.68286133 C28.27238414 50.84841918 28.27238414 50.84841918 26 49 C25.18472456 46.95465987 24.42094076 44.88859126 23.6875 42.8125 C21.6821032 37.44702831 19.53632738 33.46693985 16 29 C15.505 28.13375 15.01 27.2675 14.5 26.375 C13.01638846 23.83283773 13.01638846 23.83283773 10.5 21.5 C8 19 8 19 6.75 16.5625 C4.41081479 13.13726452 1.46334056 11.4799451 -2.0390625 9.33203125 C-4 8 -4 8 -5 6 C-3.02 5.67 -1.04 5.34 1 5 C0.67 3.35 0.34 1.7 0 0 Z " fill="#5B6174" transform="translate(812,689)"/>
<path d="M0 0 C3.93216759 1.49151184 4.99629385 3.37791581 7 7 C7.97746781 8.37620821 8.95682665 9.75107418 9.9375 11.125 C12.80971148 15.37986416 14.54116629 19.65801858 16.140625 24.51953125 C16.89384428 26.94740933 16.89384428 26.94740933 18.03710938 28.79223633 C19.25474322 31.58408797 19.25890314 33.76208484 19.265625 36.8046875 C19.26949219 37.93970703 19.27335938 39.07472656 19.27734375 40.24414062 C19.26832031 41.44232422 19.25929688 42.64050781 19.25 43.875 C19.24613281 45.09123047 19.24226562 46.30746094 19.23828125 47.56054688 C19.15787816 55.90906781 18.4934767 63.78587817 17 72 C17 72.99 17 73.98 17 75 C15.35694851 77.7195335 13.8225939 80.24068255 11.4765625 82.40625 C9.69388836 84.33040622 9.02560572 86.02284023 8.1875 88.5 C7.77564453 89.66015625 7.77564453 89.66015625 7.35546875 90.84375 C6.70021771 93.28986817 6.70021771 93.28986817 9 96 C9.375 98.4375 9.375 98.4375 9 101 C7.0625 103.125 7.0625 103.125 5 105 C4.505 106.485 4.505 106.485 4 108 C1.78248951 109.79084289 -0.41583074 111.43944911 -2.75 113.0625 C-3.37132812 113.50916016 -3.99265625 113.95582031 -4.6328125 114.41601562 C-7.97457776 116.77428668 -11.09013607 118.67930169 -15 120 C-15 120.66 -15 121.32 -15 122 C-30.04841427 129.80288148 -43.30047144 132.3668331 -60.3125 132.125 C-61.54162109 132.11597656 -62.77074219 132.10695313 -64.03710938 132.09765625 C-67.02495544 132.07440453 -70.01236484 132.04173123 -73 132 C-73 131.67 -73 131.34 -73 131 C-65.74 130.67 -58.48 130.34 -51 130 C-51 129.67 -51 129.34 -51 129 C-52.65 128.67 -54.3 128.34 -56 128 C-55.67 126.68 -55.34 125.36 -55 124 C-53.98679687 123.95101562 -52.97359375 123.90203125 -51.9296875 123.8515625 C-50.57810089 123.77647436 -49.22653962 123.70092919 -47.875 123.625 C-47.20984375 123.5940625 -46.5446875 123.563125 -45.859375 123.53125 C-39.96204748 123.18434838 -35.20312033 121.69126914 -30 119 C-29.01 118.67 -28.02 118.34 -27 118 C-25.8821189 116.84824371 -24.76554659 115.69518287 -23.65625 114.53515625 C-19.61760925 110.79179348 -14.77461072 107.259432 -9.75390625 104.98046875 C-7.64585918 104.06053355 -7.64585918 104.06053355 -7 101 C-5.948125 100.2265625 -5.948125 100.2265625 -4.875 99.4375 C-1.30455163 96.41038073 0.90593381 92.94921021 3.44921875 89.046875 C3.96097656 88.37140625 4.47273437 87.6959375 5 87 C5.66 87 6.32 87 7 87 C7.12632812 86.42765625 7.25265625 85.8553125 7.3828125 85.265625 C8.01415866 82.94802519 8.86471159 80.92721069 9.875 78.75 C15.23096477 66.81106762 16.19441445 56.47462359 16.3125 43.375 C16.34150391 42.29476562 16.37050781 41.21453125 16.40039062 40.1015625 C16.45491445 33.22317207 15.49416848 28.8605385 12 23 C11.50757813 21.83082031 11.01515625 20.66164063 10.5078125 19.45703125 C8.86683758 15.69469238 6.94826849 12.22268858 4.875 8.6875 C1.05 2.1 1.05 2.1 0 0 Z " fill="#575F71" transform="translate(822,711)"/>
<path d="M0 0 C1.67739258 0.00966797 1.67739258 0.00966797 3.38867188 0.01953125 C5.13954102 0.04466797 5.13954102 0.04466797 6.92578125 0.0703125 C8.69405273 0.08384766 8.69405273 0.08384766 10.49804688 0.09765625 C13.41166151 0.12124827 16.32487017 0.1541671 19.23828125 0.1953125 C19.2652785 2.46608092 19.28467578 4.73694071 19.30078125 7.0078125 C19.31238281 8.27238281 19.32398438 9.53695312 19.3359375 10.83984375 C19.23828125 14.1953125 19.23828125 14.1953125 18.23828125 17.1953125 C17.57828125 17.1953125 16.91828125 17.1953125 16.23828125 17.1953125 C16.03203125 17.9171875 15.82578125 18.6390625 15.61328125 19.3828125 C13.28637068 24.1424023 9.07812669 27.18263008 4.23828125 29.1953125 C2.04888916 29.43582153 2.04888916 29.43582153 -0.34667969 29.42236328 C-1.2473114 29.42221222 -2.14794312 29.42206116 -3.0758667 29.42190552 C-4.03954163 29.41158295 -5.00321655 29.40126038 -5.99609375 29.390625 C-7.4858371 29.38638016 -7.4858371 29.38638016 -9.00567627 29.38204956 C-12.17448019 29.37086393 -15.3430004 29.34576212 -18.51171875 29.3203125 C-20.66145425 29.31028062 -22.81119418 29.30115513 -24.9609375 29.29296875 C-30.22796121 29.27092991 -35.49481971 29.23746834 -40.76171875 29.1953125 C-41.09171875 28.5353125 -41.42171875 27.8753125 -41.76171875 27.1953125 C-43.7863513 26.54317958 -43.7863513 26.54317958 -45.76171875 26.1953125 C-45.76171875 25.5353125 -45.76171875 24.8753125 -45.76171875 24.1953125 C-46.42171875 24.1953125 -47.08171875 24.1953125 -47.76171875 24.1953125 C-47.76171875 24.8553125 -47.76171875 25.5153125 -47.76171875 26.1953125 C-49.41171875 26.1953125 -51.06171875 26.1953125 -52.76171875 26.1953125 C-53.09171875 24.2153125 -53.42171875 22.2353125 -53.76171875 20.1953125 C-53.07432617 20.35306152 -52.38693359 20.51081055 -51.67871094 20.67333984 C-45.86091432 21.71438849 -39.909168 21.63886973 -34.01171875 21.8203125 C-32.96859024 21.85350082 -32.96859024 21.85350082 -31.90438843 21.88735962 C-13.64211092 23.61253123 -13.64211092 23.61253123 3.23828125 19.1953125 C4.94143761 17.63217815 4.94143761 17.63217815 6.42578125 15.8203125 C7.18955078 14.94246094 7.18955078 14.94246094 7.96875 14.046875 C9.32234696 12.0727059 9.72195351 10.50814912 10.23828125 8.1953125 C9.67318848 8.1953125 9.1080957 8.1953125 8.52587891 8.1953125 C-10.76171875 8.1953125 -10.76171875 8.1953125 -12.76171875 7.1953125 C-8.81722597 2.02666679 -6.5994966 -0.06699997 0 0 Z " fill="#515666" transform="translate(760.76171875,111.8046875)"/>
<path d="M0 0 C3.96298975 2.30811491 6.47563628 5.21345443 9 9 C9.82993966 13.04595583 9.72950009 16.60731802 7.796875 20.296875 C4.67188966 24.62134967 2.09067206 27.40604432 -3.296875 28.44140625 C-8.19149987 28.6830199 -11.58502236 28.21668321 -15.625 25.3125 C-19.07132261 21.9010592 -19.58689192 19.16494066 -19.75 14.375 C-19.62748782 9.21723729 -18.53436824 6.75278426 -15 3 C-10.60361152 -0.74986076 -5.52474948 -1.08429663 0 0 Z " fill="#555A6C" transform="translate(554,540)"/>
<path d="M0 0 C3.48350269 1.99753301 6.19448387 4.38896774 8 8 C8.78949907 13.93623353 8.81084773 18.67428726 5.1875 23.625 C2.70793447 26.62496817 0.89599484 27.81537129 -3.0859375 28.203125 C-7.87204297 28.30113399 -11.25514164 28.31687455 -15 25 C-18.45344076 20.33318816 -19.61615951 16.88268168 -19.3203125 11.07421875 C-18.68665715 6.970914 -16.64024324 4.74028125 -14 1.6875 C-9.4128794 -0.89275534 -5.13221205 -0.99711548 0 0 Z " fill="#4E5467" transform="translate(471,541)"/>
<path d="M0 0 C-0.33 3.63 -0.66 7.26 -1 11 C11.88532756 10.97275144 11.88532756 10.97275144 23 5 C24.455276 7.91055201 24.45067148 9.78091798 24 13 C19.16924896 16.97195085 15.37195352 18.12879164 9.23828125 18.09765625 C8.12001953 18.09443359 7.00175781 18.09121094 5.84960938 18.08789062 C4.68236328 18.07951172 3.51511719 18.07113281 2.3125 18.0625 C1.13365234 18.05798828 -0.04519531 18.05347656 -1.25976562 18.04882812 C-4.17322789 18.03703273 -7.08658863 18.0205727 -10 18 C-10.02708567 16.39592672 -10.04643483 14.7917215 -10.0625 13.1875 C-10.07410156 12.29417969 -10.08570313 11.40085937 -10.09765625 10.48046875 C-10 8 -10 8 -9 5 C-8.34 5 -7.68 5 -7 5 C-7 4.01 -7 3.02 -7 2 C-4 0 -4 0 0 0 Z " fill="#515666" transform="translate(872,818)"/>
<path d="M0 0 C3.93216759 1.49151184 4.99629385 3.37791581 7 7 C7.97746781 8.37620821 8.95682665 9.75107418 9.9375 11.125 C12.80971148 15.37986416 14.54116629 19.65801858 16.140625 24.51953125 C16.89384428 26.94740933 16.89384428 26.94740933 18.03710938 28.79223633 C19.25474322 31.58408797 19.25890314 33.76208484 19.265625 36.8046875 C19.27142578 38.5072168 19.27142578 38.5072168 19.27734375 40.24414062 C19.26832031 41.44232422 19.25929688 42.64050781 19.25 43.875 C19.24613281 45.09123047 19.24226562 46.30746094 19.23828125 47.56054688 C19.15787816 55.90906781 18.4934767 63.78587817 17 72 C17 72.99 17 73.98 17 75 C15.35439995 77.72375181 13.80938587 80.24443518 11.47265625 82.42578125 C9.76086305 84.25562916 9.1273611 85.8492499 8.25 88.1875 C5.19773757 95.36791814 0.1060552 100.28961456 -6 105 C-6.66 105.99 -7.32 106.98 -8 108 C-8.94875 108.309375 -9.8975 108.61875 -10.875 108.9375 C-14.31142365 110.10588404 -15.59572359 111.35529594 -18 114 C-20 115.8125 -20 115.8125 -22 117 C-24.125 116.57421875 -24.125 116.57421875 -26 116 C-15.37043451 108.08068539 -15.37043451 108.08068539 -10.875 105.6875 C-7.72116622 104.26030662 -7.72116622 104.26030662 -7 101 C-6.29875 100.484375 -5.5975 99.96875 -4.875 99.4375 C-1.30455163 96.41038073 0.90593381 92.94921021 3.44921875 89.046875 C3.96097656 88.37140625 4.47273437 87.6959375 5 87 C5.66 87 6.32 87 7 87 C7.12632812 86.42765625 7.25265625 85.8553125 7.3828125 85.265625 C8.01415866 82.94802519 8.86471159 80.92721069 9.875 78.75 C15.23096477 66.81106762 16.19441445 56.47462359 16.3125 43.375 C16.34150391 42.29476562 16.37050781 41.21453125 16.40039062 40.1015625 C16.45491445 33.22317207 15.49416848 28.8605385 12 23 C11.50757813 21.83082031 11.01515625 20.66164063 10.5078125 19.45703125 C8.86683758 15.69469238 6.94826849 12.22268858 4.875 8.6875 C1.05 2.1 1.05 2.1 0 0 Z " fill="#495781" transform="translate(822,711)"/>
<path d="M0 0 C0.70189453 0.00451172 1.40378906 0.00902344 2.12695312 0.01367188 C3.85550538 0.02543073 5.58401365 0.04336546 7.3125 0.0625 C6.78210151 3.77528942 5.99078358 5.94392736 3.5 8.75 C2.99855469 9.33136719 2.49710938 9.91273438 1.98046875 10.51171875 C-2.26917054 14.46278854 -6.34256839 14.3160055 -11.9375 14.1875 C-12.68257812 14.17847656 -13.42765625 14.16945312 -14.1953125 14.16015625 C-16.02618059 14.13668358 -17.85688238 14.10081525 -19.6875 14.0625 C-19.6875 12.4125 -19.6875 10.7625 -19.6875 9.0625 C-19.0275 9.0625 -18.3675 9.0625 -17.6875 9.0625 C-17.460625 8.485 -17.23375 7.9075 -17 7.3125 C-13.00063235 0.45644117 -7.25023019 -0.08800466 0 0 Z " fill="#CFCFD1" transform="translate(763.6875,119.9375)"/>
<path d="M0 0 C14.20176508 -0.58452387 14.20176508 -0.58452387 21 3 C24.66153537 6.47376432 25.30564193 9.11252817 26 14 C10.4322608 14.58298052 10.4322608 14.58298052 5 11 C1.55444034 7.3424059 0 5.12798924 0 0 Z " fill="#C9C9CF" transform="translate(707,120)"/>
<path d="M0 0 C2.33803004 2.33803004 2.40739549 3.30927571 2.9375 6.5 C3.63224718 10.20531827 4.39578203 13.85836775 5.375 17.5 C5.58898437 18.3146875 5.80296875 19.129375 6.0234375 19.96875 C7.26144019 22.54379559 8.48897121 22.78105399 11 24 C12.01953125 25.8828125 12.01953125 25.8828125 12.8125 28.125 C14.63195735 32.62652595 17.0694026 35.69236908 20.4140625 39.17578125 C22.02106995 41.02423563 23.00634383 42.77165225 24 45 C23.195625 45.28875 22.39125 45.5775 21.5625 45.875 C18.8673532 46.73262568 18.8673532 46.73262568 18 49 C18.66 49 19.32 49 20 49 C19.67 49.66 19.34 50.32 19 51 C12.74960195 45.97973348 7.82991859 40.3842275 3 34 C4.98 33.505 4.98 33.505 7 33 C7 33.99 7 34.98 7 36 C8.32 36.33 9.64 36.66 11 37 C11 34.03 11 31.06 11 28 C10.34 28 9.68 28 9 28 C8.71125 27.360625 8.4225 26.72125 8.125 26.0625 C7.17176549 23.84793921 7.17176549 23.84793921 5 23 C2.02378027 15.55383517 0.36098544 7.9958275 0 0 Z " fill="#566075" transform="translate(692,774)"/>
<path d="M0 0 C1.30130859 -0.00773438 2.60261719 -0.01546875 3.94335938 -0.0234375 C10.88754023 -0.00934479 17.1105037 0.4042043 23.8125 2.25 C23.8125 2.91 23.8125 3.57 23.8125 4.25 C22.79414062 4.105625 21.77578125 3.96125 20.7265625 3.8125 C3.94216623 1.5562632 -16.45702595 -0.60111631 -32.1875 7.25 C-33.1775 8.735 -33.1775 8.735 -34.1875 10.25 C-36.61283481 11.88873973 -38.86836911 13.1354402 -41.625 14.125 C-45.00015617 15.60677588 -47.39083829 17.86986237 -50.1875 20.25 C-50.83460938 20.5284375 -51.48171875 20.806875 -52.1484375 21.09375 C-54.9001486 22.65410725 -56.0358776 24.6117087 -57.75 27.25 C-59.81806299 30.41888048 -61.00095774 32.12563849 -64.1875 34.25 C-63.16129138 32.0397045 -62.13033206 30.17682503 -60.625 28.25 C-59.07525802 26.38938522 -59.07525802 26.38938522 -58.8203125 24.3359375 C-57.56647092 20.20290413 -53.44336712 17.87532947 -50.1875 15.25 C-49.5996875 14.74210938 -49.011875 14.23421875 -48.40625 13.7109375 C-34.04489889 1.93211005 -17.99137564 -0.10789431 0 0 Z " fill="#49577D" transform="translate(767.1875,682.75)"/>
<path d="M0 0 C0.99 0 1.98 0 3 0 C3 0.66 3 1.32 3 2 C4.65 2.33 6.3 2.66 8 3 C8 3.66 8 4.32 8 5 C8.94875 5.309375 9.8975 5.61875 10.875 5.9375 C14 7 14 7 16 8 C16 8.66 16 9.32 16 10 C16.721875 10.12375 17.44375 10.2475 18.1875 10.375 C21 11 21 11 23.25 12.00390625 C26.51122133 13.1851725 29.35207698 13.3831837 32.8125 13.5625 C36.68303764 13.78424955 40.48373965 14.01517728 44.3125 14.625 C47.90414443 14.99025198 50.80648562 14.74324538 54.34765625 14.2578125 C59.875978 13.72044986 65.45154809 13.92896719 71 14 C70.67 14.66 70.34 15.32 70 16 C60.94743161 18.65192781 51.33076353 18.28582378 42 18 C40.29070313 17.95552734 40.29070313 17.95552734 38.546875 17.91015625 C30.8693293 17.52998792 22.95552902 16.44495541 16 13 C15.140625 10.86328125 15.140625 10.86328125 15 9 C13.906875 8.731875 12.81375 8.46375 11.6875 8.1875 C8.16076366 7.05177135 7.29591408 6.60899328 5 4 C3.33675599 2.99431758 1.67063747 1.99335201 0 1 C0 0.67 0 0.34 0 0 Z " fill="#43548E" transform="translate(716,816)"/>
<path d="M0 0 C1.28132813 0.00902344 2.56265625 0.01804688 3.8828125 0.02734375 C4.87023437 0.03894531 5.85765625 0.05054688 6.875 0.0625 C5.88758389 5.71937919 5.88758389 5.71937919 2.875 8.0625 C-0.80986111 10.45809528 -4.05768782 10.26745023 -8.375 10.1875 C-9.63828125 10.16945312 -10.9015625 10.15140625 -12.203125 10.1328125 C-13.16734375 10.10960937 -14.1315625 10.08640625 -15.125 10.0625 C-15.125 8.7425 -15.125 7.4225 -15.125 6.0625 C-9.74693018 1.03517386 -7.24767603 -0.06588796 0 0 Z " fill="#D7D6D8" transform="translate(178.125,197.9375)"/>
<path d="M0 0 C12.70016767 0.64501727 12.70016767 0.64501727 17.40234375 5.42578125 C21 9.44200139 21 9.44200139 21 13 C14.72665056 13.40042656 8.33224147 12.76011648 3.31640625 8.60546875 C0.57234728 5.53492118 0 4.19788242 0 0 Z " fill="#CDCDD1" transform="translate(131,193)"/>
<path d="M0 0 C7.08413941 -0.02529271 14.16826723 -0.04284261 21.25244141 -0.05493164 C23.66390417 -0.05996974 26.07536386 -0.06680034 28.48681641 -0.07543945 C31.94694779 -0.08752787 35.4070389 -0.09323344 38.8671875 -0.09765625 C39.95055389 -0.10281754 41.03392029 -0.10797882 42.15011597 -0.11329651 C43.1510025 -0.11337204 44.15188904 -0.11344757 45.18310547 -0.11352539 C46.06690887 -0.115746 46.95071228 -0.11796661 47.86129761 -0.12025452 C50 0 50 0 52 1 C52 1.99 52 2.98 52 4 C52.99 4.495 52.99 4.495 54 5 C51.48533051 4.58088842 49.36507088 4.19674567 47.10894775 2.98086548 C44.73724501 1.87779342 43.11105846 1.72605273 40.50683594 1.68115234 C39.62622498 1.66128265 38.74561401 1.64141296 37.83831787 1.62094116 C36.89651672 1.60938995 35.95471558 1.59783875 34.984375 1.5859375 C34.01340881 1.56657135 33.04244263 1.5472052 32.04205322 1.5272522 C28.94479114 1.46753491 25.84749174 1.4211022 22.75 1.375 C20.64842141 1.33681302 18.54685835 1.29776086 16.4453125 1.2578125 C11.29700132 1.16183969 6.14861688 1.0777794 1 1 C1.02094727 2.25022949 1.04189453 3.50045898 1.06347656 4.78857422 C1.13636165 9.46635295 1.18197492 14.14408239 1.21972656 18.82226562 C1.23973216 20.83960435 1.2669456 22.8568859 1.30175781 24.87402344 C1.35076577 27.78855573 1.37307964 30.70231559 1.390625 33.6171875 C1.41127014 34.50614716 1.43191528 35.39510681 1.45318604 36.31100464 C1.45547357 42.82354197 0.08174653 48.23201813 -3 54 C-5.47265625 56.47265625 -5.47265625 56.47265625 -8.0625 58.0625 C-8.91972656 58.61035156 -9.77695312 59.15820312 -10.66015625 59.72265625 C-14.05484424 61.57584986 -16.74851358 62.15608331 -20.5625 62.1875 C-21.34753906 62.20167969 -22.13257813 62.21585937 -22.94140625 62.23046875 C-25 62 -25 62 -27 60 C-26.3709375 60.04640625 -25.741875 60.0928125 -25.09375 60.140625 C-18.78050211 60.4068463 -14.24945981 59.62491567 -9 56 C-8.20916016 55.18982422 -8.20916016 55.18982422 -7.40234375 54.36328125 C-6 53 -6 53 -4 53 C-3.86722656 52.39671875 -3.73445312 51.7934375 -3.59765625 51.171875 C-3.42105469 50.37265625 -3.24445312 49.5734375 -3.0625 48.75 C-2.88847656 47.96109375 -2.71445312 47.1721875 -2.53515625 46.359375 C-2.21233606 44.93613856 -1.86702873 43.51737652 -1.47938538 42.1104126 C-0.99416254 39.97430158 -0.8431314 38.0613603 -0.79467773 35.87402344 C-0.77473251 35.07349548 -0.75478729 34.27296753 -0.73423767 33.44818115 C-0.71752518 32.59387512 -0.70081268 31.73956909 -0.68359375 30.859375 C-0.66281265 29.97719299 -0.64203156 29.09501099 -0.62062073 28.18609619 C-0.55535133 25.37414169 -0.49634553 22.56209555 -0.4375 19.75 C-0.39429327 17.84113644 -0.35067829 15.93228207 -0.30664062 14.0234375 C-0.19969313 9.34905174 -0.09836215 4.67457398 0 0 Z " fill="#626A83" transform="translate(698,279)"/>
<path d="M0 0 C1.76923828 0.01353516 1.76923828 0.01353516 3.57421875 0.02734375 C4.47785156 0.03894531 5.38148438 0.05054688 6.3125 0.0625 C5.50280232 3.93748177 4.00920342 6.12785216 1.3125 9.0625 C-1.97269475 10.15756492 -4.42413415 10.16210608 -7.875 10.125 C-9.50501953 10.11146484 -9.50501953 10.11146484 -11.16796875 10.09765625 C-11.99941406 10.08605469 -12.83085938 10.07445312 -13.6875 10.0625 C-14.328125 8.23046875 -14.328125 8.23046875 -14.6875 6.0625 C-10.10687709 0.59120041 -6.91898421 -0.06850479 0 0 Z " fill="#C9CCCF" transform="translate(887.6875,817.9375)"/>
<path d="M0 0 C6.14587738 0.2410148 6.14587738 0.2410148 8.578125 2.40234375 C9.78844931 3.88046971 10.90220903 5.43647953 12 7 C9.6875 7.625 9.6875 7.625 7 8 C6.01 7.34 5.02 6.68 4 6 C4.33 7.98 4.66 9.96 5 12 C6.65 12 8.3 12 10 12 C10 11.34 10 10.68 10 10 C10.66 10 11.32 10 12 10 C12 10.66 12 11.32 12 12 C13.65 12.33 15.3 12.66 17 13 C17 13.66 17 14.32 17 15 C31.19 15 45.38 15 60 15 C60 15.33 60 15.66 60 16 C53.32899108 16.10192421 46.65818507 16.17168442 39.98657227 16.21972656 C37.71989437 16.23976707 35.45326768 16.26700711 33.18676758 16.30175781 C29.91735144 16.35060868 26.64862243 16.37304512 23.37890625 16.390625 C21.87367149 16.42159271 21.87367149 16.42159271 20.33802795 16.45318604 C12.54266539 16.45563853 6.31397853 14.91945727 0.375 9.6875 C-1.45936615 6.10214799 -0.90481294 3.84545499 0 0 Z " fill="#68707F" transform="translate(703,126)"/>
<path d="M0 0 C0.33 0 0.66 0 1 0 C1.33 23.76 1.66 47.52 2 72 C1.01 72 0.02 72 -1 72 C-1.17707131 63.20318134 -1.34301924 54.40624362 -1.49477577 45.60895157 C-1.56559207 41.52400487 -1.64023595 37.43920295 -1.72363281 33.35449219 C-1.80397663 29.41241389 -1.87425878 25.47027274 -1.93757248 21.52788544 C-1.963493 20.02393741 -1.99303657 18.52004731 -2.02626419 17.01624298 C-2.07219189 14.90963046 -2.10522442 12.80317988 -2.13525391 10.69628906 C-2.15746002 9.49715881 -2.17966614 8.29802856 -2.20254517 7.06256104 C-2.00705224 4.10663256 -1.55512592 2.48037105 0 0 Z " fill="#737886" transform="translate(327,253)"/>
<path d="M0 0 C0.83789062 0.43957031 1.67578125 0.87914062 2.5390625 1.33203125 C8.71946254 4.57919381 8.71946254 4.57919381 11 8 C7.51329166 6.8905928 4.22515763 5.73662334 1 4 C1 3.34 1 2.68 1 2 C0.2575 1.855625 -0.485 1.71125 -1.25 1.5625 C-3.52027739 1.09812508 -5.75759479 0.58136431 -8 0 C-8 -0.66 -8 -1.32 -8 -2 C-24.35905949 -5.45283428 -42.84212866 -7.56966713 -58.75 -0.8359375 C-61.31648961 0.11758468 -62.47181399 -0.06363481 -65 -1 C-46.00704219 -9.65608254 -18.28956603 -10.89259138 0 0 Z " fill="#3D549C" transform="translate(799,691)"/>
<path d="M0 0 C2.06132142 -0.10864945 4.12431321 -0.18588321 6.1875 -0.25 C7.33605469 -0.29640625 8.48460937 -0.3428125 9.66796875 -0.390625 C13.70062359 0.08213641 15.25098765 1.04493736 18 4 C18.8125 6.75 18.8125 6.75 19 9 C17.10489301 9.08160748 15.20875496 9.13946459 13.3125 9.1875 C11.72888672 9.23970703 11.72888672 9.23970703 10.11328125 9.29296875 C6.58163401 8.96063055 4.81744571 8.11678496 2 6 C0 3 0 3 0 0 Z " fill="#CACACC" transform="translate(906,820)"/>
<path d="M0 0 C2.475 0.495 2.475 0.495 5 1 C5 2.98 5 4.96 5 7 C3.35 7 1.7 7 0 7 C0 4.69 0 2.38 0 0 Z M-3 7 C-2.01 7 -1.02 7 0 7 C0.103125 7.78375 0.20625 8.5675 0.3125 9.375 C0.77595022 12.33045181 0.77595022 12.33045181 4 14 C4.3125 16.5 4.3125 16.5 4 19 C2 21 2 21 -0.625 21.125 C-1.40875 21.08375 -2.1925 21.0425 -3 21 C-4.99475484 16.88581814 -5.34358086 13.55244646 -5 9 C-4.34 8.34 -3.68 7.68 -3 7 Z " fill="#C1C6CB" transform="translate(177,309)"/>
<path d="M0 0 C0.66 0 1.32 0 2 0 C1.690625 1.27875 1.38125 2.5575 1.0625 3.875 C0.28683153 7.31940195 -0.20643172 10.67001823 -0.5 14.1875 C-0.83530766 18.07347629 -1.71554032 21.30717841 -3 25 C-3.91524146 30.87546613 -4.12536497 36.56167832 -4.0625 42.5 C-4.05798828 43.32242188 -4.05347656 44.14484375 -4.04882812 44.9921875 C-4.03718489 46.99482396 -4.01925556 48.99742227 -4 51 C-4.495 49.515 -4.495 49.515 -5 48 C-5.66 48 -6.32 48 -7 48 C-7.72008913 16.396088 -7.72008913 16.396088 -1.90234375 5.7265625 C-0.91904607 3.84510115 -0.44218517 2.06960894 0 0 Z " fill="#42558C" transform="translate(696,723)"/>
<path d="M0 0 C2.31 0 4.62 0 7 0 C8.70159453 13.6332574 8.70159453 13.6332574 5 20 C2.23684015 17.61363468 1.12728111 15.45958686 0 12 C-0.1953125 8.88671875 -0.1953125 8.88671875 -0.125 5.6875 C-0.10695313 4.61886719 -0.08890625 3.55023438 -0.0703125 2.44921875 C-0.04710937 1.64097656 -0.02390625 0.83273438 0 0 Z " fill="#4F5566" transform="translate(697,112)"/>
<path d="M0 0 C-0.556875 0.268125 -1.11375 0.53625 -1.6875 0.8125 C-4.06450659 1.98661429 -4.06450659 1.98661429 -6.4375 3.5625 C-11.98968769 6.67714188 -18.47060108 6.34184586 -24.6875 6.625 C-26.10192383 6.70234375 -26.10192383 6.70234375 -27.54492188 6.78125 C-33.67683249 7.06782727 -39.96330553 7.29925167 -46 6 C-46.66 5.34 -47.32 4.68 -48 4 C-46.91283691 4.01571045 -46.91283691 4.01571045 -45.80371094 4.03173828 C-42.45251065 4.07385486 -39.10136636 4.09950047 -35.75 4.125 C-34.04070313 4.15013672 -34.04070313 4.15013672 -32.296875 4.17578125 C-19.06074593 4.489446 -19.06074593 4.489446 -7 0 C-2.44444444 -1.22222222 -2.44444444 -1.22222222 0 0 Z " fill="#49567D" transform="translate(796,829)"/>
<path d="M0 0 C1.98 0.66 3.96 1.32 6 2 C6 2.66 6 3.32 6 4 C6.66 4 7.32 4 8 4 C8.33 4.66 8.66 5.32 9 6 C9.99 6.33 10.98 6.66 12 7 C11.67 8.32 11.34 9.64 11 11 C8.375 11.8125 8.375 11.8125 5 12 C1.86399793 9.92905524 -0.38047523 8.31649014 -2 4.875 C-2 3 -2 3 0 0 Z " fill="#515767" transform="translate(127,198)"/>
<path d="M0 0 C1.28132813 0.00902344 2.56265625 0.01804688 3.8828125 0.02734375 C4.87023437 0.03894531 5.85765625 0.05054688 6.875 0.0625 C6.875 0.3925 6.875 0.7225 6.875 1.0625 C2.915 1.0625 -1.045 1.0625 -5.125 1.0625 C-5.125 1.7225 -5.125 2.3825 -5.125 3.0625 C-6.775 3.3925 -8.425 3.7225 -10.125 4.0625 C-10.455 5.0525 -10.785 6.0425 -11.125 7.0625 C-7.495 7.3925 -3.865 7.7225 -0.125 8.0625 C-0.125 7.4025 -0.125 6.7425 -0.125 6.0625 C1.525 6.0625 3.175 6.0625 4.875 6.0625 C0.14185324 9.69124585 -2.19793847 10.18001874 -8.25 10.125 C-9.53132812 10.11597656 -10.81265625 10.10695312 -12.1328125 10.09765625 C-13.61394531 10.08025391 -13.61394531 10.08025391 -15.125 10.0625 C-15.125 8.7425 -15.125 7.4225 -15.125 6.0625 C-9.74693018 1.03517386 -7.24767603 -0.06588796 0 0 Z " fill="#B0AFB4" transform="translate(178.125,197.9375)"/>
<path d="M0 0 C10.46589018 -0.17314892 10.46589018 -0.17314892 15.125 0.5625 C18.8267158 0.98043566 21.70495756 0.75716311 25.34765625 0.2578125 C30.875978 -0.27955014 36.45154809 -0.07103281 42 0 C41.67 0.66 41.34 1.32 41 2 C35.68504839 3.08652006 30.41134696 3.19192601 25 3.1875 C23.76672974 3.1884668 23.76672974 3.1884668 22.50854492 3.18945312 C14.88461772 3.12466263 7.51546134 2.25819383 0 1 C0 0.67 0 0.34 0 0 Z " fill="#3B54A1" transform="translate(745,830)"/>
<path d="M0 0 C0.66 0 1.32 0 2 0 C1.42380903 3.56764821 0.13030516 5.25159497 -2.4375 7.75 C-3.05496094 8.36359375 -3.67242188 8.9771875 -4.30859375 9.609375 C-6 11 -6 11 -8 11 C-8 10.01 -8 9.02 -8 8 C-9.96147874 6.61061923 -11.96166576 5.2739589 -14 4 C-14 3.67 -14 3.34 -14 3 C-12.60974609 2.80083984 -12.60974609 2.80083984 -11.19140625 2.59765625 C-9.99386719 2.42105469 -8.79632812 2.24445312 -7.5625 2.0625 C-6.36753906 1.88847656 -5.17257812 1.71445312 -3.94140625 1.53515625 C-1.12044324 1.31014787 -1.12044324 1.31014787 0 0 Z " fill="#2D4CA6" transform="translate(772,734)"/>
<path d="M0 0 C4.92127034 -0.16682272 8.50343896 -0.24828052 13 2 C11.85546875 3.984375 11.85546875 3.984375 10 6 C7.30078125 6.390625 7.30078125 6.390625 4.3125 6.25 C3.31863281 6.21390625 2.32476562 6.1778125 1.30078125 6.140625 C0.54152344 6.09421875 -0.21773437 6.0478125 -1 6 C-1 6.66 -1 7.32 -1 8 C-1.66 8 -2.32 8 -3 8 C-2.5359375 7.13375 -2.5359375 7.13375 -2.0625 6.25 C-1.07416636 4.15705816 -0.4831387 2.25464725 0 0 Z " fill="#4A4E5D" transform="translate(169,191)"/>
<path d="M0 0 C1.9375 0.3125 1.9375 0.3125 4 1 C4.33 1.99 4.66 2.98 5 4 C6.4540625 4.185625 6.4540625 4.185625 7.9375 4.375 C9.4534375 4.684375 9.4534375 4.684375 11 5 C11.33 5.66 11.66 6.32 12 7 C16.7255194 8.09777451 21.545061 8.29611096 26.375 8.5625 C27.11105469 8.60568359 27.84710937 8.64886719 28.60546875 8.69335938 C30.40348068 8.79843799 32.20171958 8.89962093 34 9 C34 6.36 34 3.72 34 1 C34.33 1 34.66 1 35 1 C35 3.97 35 6.94 35 10 C10.90582429 10.79870196 10.90582429 10.79870196 4 6 C0 1.9047619 0 1.9047619 0 0 Z " fill="#92979F" transform="translate(901,829)"/>
<path d="M0 0 C7.08413941 -0.02529271 14.16826723 -0.04284261 21.25244141 -0.05493164 C23.66390417 -0.05996974 26.07536386 -0.06680034 28.48681641 -0.07543945 C31.94694779 -0.08752787 35.4070389 -0.09323344 38.8671875 -0.09765625 C39.95055389 -0.10281754 41.03392029 -0.10797882 42.15011597 -0.11329651 C43.1510025 -0.11337204 44.15188904 -0.11344757 45.18310547 -0.11352539 C46.06690887 -0.115746 46.95071228 -0.11796661 47.86129761 -0.12025452 C50 0 50 0 52 1 C52 1.99 52 2.98 52 4 C52.66 4.33 53.32 4.66 54 5 C51.4867612 4.58112687 49.36811083 4.19898769 47.11468506 2.98086548 C44.71430645 1.86748526 43.05076441 1.72557468 40.41503906 1.68115234 C39.06409149 1.65134781 39.06409149 1.65134781 37.68585205 1.62094116 C36.72217712 1.60938995 35.7585022 1.59783875 34.765625 1.5859375 C33.77246277 1.56657135 32.77930054 1.5472052 31.75604248 1.5272522 C28.58744871 1.46752678 25.41881847 1.42109889 22.25 1.375 C20.10024467 1.33681377 17.95050454 1.29776166 15.80078125 1.2578125 C10.53398915 1.16183109 5.26710536 1.07676296 0 1 C0 0.67 0 0.34 0 0 Z " fill="#5F687F" transform="translate(698,279)"/>
<path d="M0 0 C0.89847656 0.00257813 1.79695312 0.00515625 2.72265625 0.0078125 C3.61855469 0.00523437 4.51445313 0.00265625 5.4375 0 C7.78515625 0.1328125 7.78515625 0.1328125 9.78515625 1.1328125 C9.45515625 2.4528125 9.12515625 3.7728125 8.78515625 5.1328125 C4.16515625 5.1328125 -0.45484375 5.1328125 -5.21484375 5.1328125 C-2.7302983 0.16372159 -2.7302983 0.16372159 0 0 Z " fill="#E1E2E4" transform="translate(907.21484375,693.8671875)"/>
<path d="M0 0 C1.32 0 2.64 0 4 0 C4.66 0.99 5.32 1.98 6 3 C8.55183404 4.20450304 8.55183404 4.20450304 11 5 C11 6.32 11 7.64 11 9 C9.35333797 8.8864371 7.70763918 8.75882619 6.0625 8.625 C5.14597656 8.55539062 4.22945312 8.48578125 3.28515625 8.4140625 C2.15400391 8.20910156 2.15400391 8.20910156 1 8 C-0.35439668 5.29120665 -0.06501451 2.99066732 0 0 Z " fill="#DCDEE0" transform="translate(898,726)"/>
<path d="M0 0 C2.33803004 2.33803004 2.40739549 3.30927571 2.9375 6.5 C3.63224718 10.20531827 4.39578203 13.85836775 5.375 17.5 C5.58898437 18.3146875 5.80296875 19.129375 6.0234375 19.96875 C7.25546893 22.53137538 8.45556224 22.88084888 11 24 C12.3125 26.4375 12.3125 26.4375 13 29 C12.67 29.99 12.34 30.98 12 32 C11.67 30.68 11.34 29.36 11 28 C10.34 28 9.68 28 9 28 C8.71125 27.360625 8.4225 26.72125 8.125 26.0625 C7.17176549 23.84793921 7.17176549 23.84793921 5 23 C2.02378027 15.55383517 0.36098544 7.9958275 0 0 Z " fill="#42568D" transform="translate(692,774)"/>
<path d="M0 0 C0 0.99 0 1.98 0 3 C-0.639375 3.61875 -1.27875 4.2375 -1.9375 4.875 C-4.20854134 6.82782511 -4.20854134 6.82782511 -4.5 9.5625 C-5 12 -5 12 -6.75 13.6875 C-9.11077001 15.06461584 -11.44301083 16.04112906 -14 17 C-15.33814643 17.65695232 -16.67233982 18.32210571 -18 19 C-12.44964797 12.21623641 -6.23557973 6.14477032 0 0 Z " fill="#3D5CB2" transform="translate(760,775)"/>
<path d="M0 0 C4.29 0 8.58 0 13 0 C11.95813941 4.16744234 10.8562728 5.89170313 8 9 C4.71480525 10.09506492 2.26336585 10.09960608 -1.1875 10.0625 C-2.81751953 10.04896484 -2.81751953 10.04896484 -4.48046875 10.03515625 C-5.31191406 10.02355469 -6.14335938 10.01195312 -7 10 C-7.33 8.68 -7.66 7.36 -8 6 C-7.01 5.34 -6.02 4.68 -5 4 C-5 5.32 -5 6.64 -5 8 C2.53543879 8.52064208 2.53543879 8.52064208 9 5 C9 4.01 9 3.02 9 2 C6.03 1.67 3.06 1.34 0 1 C0 0.67 0 0.34 0 0 Z " fill="#989DA6" transform="translate(881,818)"/>
<path d="M0 0 C3.93216759 1.49151184 4.99629385 3.37791581 7 7 C7.48984375 7.67546875 7.9796875 8.3509375 8.484375 9.046875 C12.18341324 14.15507067 13.77002558 17.67570337 14 24 C11.25495022 22.62747511 10.96650455 20.71616922 9.85644531 17.98291016 C8.45481418 14.73774252 6.66108399 11.73300219 4.875 8.6875 C1.05 2.1 1.05 2.1 0 0 Z " fill="#465995" transform="translate(822,711)"/>
<path d="M0 0 C0.66 0.33 1.32 0.66 2 1 C-1.75 6.875 -1.75 6.875 -4 8 C-5.05352843 10.30965848 -6.05719096 12.6429774 -7 15 C-7.99 14.34 -8.98 13.68 -10 13 C-9.84825965 7.99256861 -7.09792829 5.72452403 -3.69140625 2.453125 C-2 1 -2 1 0 0 Z " fill="#4462B3" transform="translate(789,747)"/>
<path d="M0 0 C0.66 0.33 1.32 0.66 2 1 C1.52119873 5.56890022 -0.0781411 7.6204895 -3.3125 10.8125 C-4.48232422 11.99779297 -4.48232422 11.99779297 -5.67578125 13.20703125 C-8 15 -8 15 -12 15 C-11.3125 12.625 -11.3125 12.625 -10 10 C-7.625 8.9375 -7.625 8.9375 -5 8 C-2.06829427 5.55691189 -0.54533089 3.81731623 0 0 Z " fill="#3451A8" transform="translate(736,767)"/>
<path d="M0 0 C2.475 0.495 2.475 0.495 5 1 C5 2.98 5 4.96 5 7 C3.35 7 1.7 7 0 7 C0 4.69 0 2.38 0 0 Z M-3 7 C-2.01 7 -1.02 7 0 7 C0.12375 7.78375 0.2475 8.5675 0.375 9.375 C0.79117993 12.14057822 0.79117993 12.14057822 3 14 C1.68 13.67 0.36 13.34 -1 13 C-1 11.68 -1 10.36 -1 9 C-2.32 9.99 -3.64 10.98 -5 12 C-4.125 8.125 -4.125 8.125 -3 7 Z " fill="#E6E7EA" transform="translate(177,309)"/>
<path d="M0 0 C0.70189453 0.00451172 1.40378906 0.00902344 2.12695312 0.01367188 C3.85550538 0.02543073 5.58401365 0.04336546 7.3125 0.0625 C6.9825 1.3825 6.6525 2.7025 6.3125 4.0625 C6.3125 3.0725 6.3125 2.0825 6.3125 1.0625 C4.54130197 1.20383499 2.77054713 1.35073208 1 1.5 C0.01386719 1.58121094 -0.97226562 1.66242188 -1.98828125 1.74609375 C-5.4230685 2.14872438 -7.21460893 2.58960893 -9.6875 5.0625 C-11.97631768 6.48135983 -14.33233265 7.7540737 -16.6875 9.0625 C-16.6875 8.0725 -16.6875 7.0825 -16.6875 6.0625 C-11.08465572 0.83317867 -7.43319699 -0.09022555 0 0 Z " fill="#B8B7BE" transform="translate(763.6875,119.9375)"/>
<path d="M0 0 C0.66 0.33 1.32 0.66 2 1 C0.92130607 1.96355244 -0.16318743 2.92061417 -1.25 3.875 C-1.85328125 4.40867187 -2.4565625 4.94234375 -3.078125 5.4921875 C-5 7 -5 7 -7.01171875 7.8828125 C-9.73938135 9.41544807 -10.86814828 11.39213874 -12.5625 14 C-14.63056299 17.16888048 -15.81345774 18.87563849 -19 21 C-17.97379138 18.7897045 -16.94283206 16.92682503 -15.4375 15 C-13.87446362 13.13966164 -13.87446362 13.13966164 -13.6875 11.0625 C-12.20094581 6.60283744 -7.12136449 3.97373578 -3.25 1.625 C-2.1775 1.08875 -1.105 0.5525 0 0 Z " fill="#43568E" transform="translate(722,696)"/>
<path d="M0 0 C0.66 0.33 1.32 0.66 2 1 C0.125 5.75 0.125 5.75 -1 8 C-1.53625 7.773125 -2.0725 7.54625 -2.625 7.3125 C-6.06081901 6.86041855 -8.05766694 8.32821985 -11 10 C-9.43989422 5.78771439 -6.5154607 3.65453155 -3 1 C-2.01 0.67 -1.02 0.34 0 0 Z " fill="#727984" transform="translate(877,810)"/>
<path d="M0 0 C0.66 0 1.32 0 2 0 C2 0.99 2 1.98 2 3 C11.405 2.01 11.405 2.01 21 1 C19.66399339 3.67201321 18.81843694 3.98572174 16 5 C13.21175242 5.13997227 10.53172884 5.1888913 7.75 5.125 C7.00492188 5.11597656 6.25984375 5.10695312 5.4921875 5.09765625 C3.66131941 5.07418358 1.83061762 5.03831525 0 5 C0 3.35 0 1.7 0 0 Z " fill="#9FA1A8" transform="translate(744,129)"/>
<path d="M0 0 C0 3 0 3 -2.1171875 5.48046875 C-3.02726563 6.37378906 -3.93734375 7.26710938 -4.875 8.1875 C-5.77992188 9.08855469 -6.68484375 9.98960937 -7.6171875 10.91796875 C-10 13 -10 13 -12 13 C-12.2475 13.639375 -12.495 14.27875 -12.75 14.9375 C-14 17 -14 17 -16.078125 17.62890625 C-16.71234375 17.75136719 -17.3465625 17.87382813 -18 18 C-14.24011823 13.39414483 -10.36303633 9.42876079 -5.8359375 5.578125 C-3.7854109 3.81554469 -1.87227771 1.95028928 0 0 Z " fill="#C3CDE5" transform="translate(745,765)"/>
<path d="M0 0 C0.598125 0.226875 1.19625 0.45375 1.8125 0.6875 C1.8125 2.9975 1.8125 5.3075 1.8125 7.6875 C-0.4975 7.6875 -2.8075 7.6875 -5.1875 7.6875 C-5.41803497 4.84423536 -5.54653101 3.22604651 -3.9375 0.8125 C-2.1875 -0.3125 -2.1875 -0.3125 0 0 Z " fill="#414757" transform="translate(570.1875,632.3125)"/>
<path d="M0 0 C0.99 0.33 1.98 0.66 3 1 C3.05386629 3.12472576 3.09273071 5.24983652 3.125 7.375 C3.14820313 8.55835938 3.17140625 9.74171875 3.1953125 10.9609375 C3 14 3 14 1 16 C0.01 16 -0.98 16 -2 16 C-1.67 14.35 -1.34 12.7 -1 11 C-0.34 11 0.32 11 1 11 C0.67 7.37 0.34 3.74 0 0 Z " fill="#2F4DA5" transform="translate(805,720)"/>
<path d="M0 0 C0.73828125 1.6875 0.73828125 1.6875 1 4 C-0.58203125 6.4375 -0.58203125 6.4375 -2.8125 9 C-5.31245092 11.90259788 -7.45896549 14.4776354 -9 18 C-10 15 -10 15 -9.07421875 12.87890625 C-8.61660156 12.11449219 -8.15898438 11.35007812 -7.6875 10.5625 C-5.73085232 7.26557084 -5.73085232 7.26557084 -4.01953125 3.83984375 C-3 2 -3 2 0 0 Z " fill="#4B597B" transform="translate(708,705)"/>
<path d="M0 0 C1.8871875 0.0309375 1.8871875 0.0309375 3.8125 0.0625 C4.1425 1.0525 4.4725 2.0425 4.8125 3.0625 C2.13170844 4.81532525 0.94361361 5.07561136 -2.3125 4.75 C-5.1875 4.0625 -5.1875 4.0625 -7.1875 3.0625 C-7.1875 2.4025 -7.1875 1.7425 -7.1875 1.0625 C-4.43671116 0.14557039 -2.82801087 -0.04636083 0 0 Z " fill="#4B505E" transform="translate(146.1875,206.9375)"/>
<path d="M0 0 C6.93 0 13.86 0 21 0 C21 1.32 21 2.64 21 4 C20.113125 3.690625 19.22625 3.38125 18.3125 3.0625 C12.69122053 1.42489586 6.81447802 1.33225589 1 1 C1.66 3.31 2.32 5.62 3 8 C2.01 8 1.02 8 0 8 C0 5.36 0 2.72 0 0 Z " fill="#808492" transform="translate(706,119)"/>
<path d="M0 0 C3.96 0 7.92 0 12 0 C11 4 11 4 10 5 C8.33382885 5.04063832 6.66611905 5.042721 5 5 C5 4.01 5 3.02 5 2 C3.35 2 1.7 2 0 2 C0 1.34 0 0.68 0 0 Z " fill="#C8C8CB" transform="translate(173,199)"/>
<path d="M0 0 C2.64 0 5.28 0 8 0 C8.33 1.32 8.66 2.64 9 4 C8.01 4.66 7.02 5.32 6 6 C2.8125 5.125 2.8125 5.125 0 4 C0 2.68 0 1.36 0 0 Z " fill="#D3D3D8" transform="translate(708,121)"/>
<path d="M0 0 C0.66 0 1.32 0 2 0 C2 0.66 2 1.32 2 2 C3.32 2.33 4.64 2.66 6 3 C6.33 4.65 6.66 6.3 7 8 C4.69 8 2.38 8 0 8 C0 5.36 0 2.72 0 0 Z " fill="#ECF1F4" transform="translate(776,759)"/>
<path d="M0 0 C2.31 0 4.62 0 7 0 C7.042721 1.66611905 7.04063832 3.33382885 7 5 C6 6 6 6 3.5 6.125 C1 6 1 6 0 5 C-0.04063832 3.33382885 -0.042721 1.66611905 0 0 Z " fill="#DBDCDE" transform="translate(847,719)"/>
<path d="M0 0 C2.5 0.125 2.5 0.125 3.5 1.125 C3.54063832 2.79117115 3.542721 4.45888095 3.5 6.125 C1.19 6.125 -1.12 6.125 -3.5 6.125 C-3.542721 4.45888095 -3.54063832 2.79117115 -3.5 1.125 C-2.5 0.125 -2.5 0.125 0 0 Z " fill="#CBCFD3" transform="translate(200.5,295.875)"/>
<path d="M0 0 C2.97 0.33 5.94 0.66 9 1 C9.33 2.65 9.66 4.3 10 6 C9.34 6 8.68 6 8 6 C8 5.34 8 4.68 8 4 C7.34 4 6.68 4 6 4 C6 4.66 6 5.32 6 6 C4.35 6 2.7 6 1 6 C0.67 4.02 0.34 2.04 0 0 Z " fill="#495062" transform="translate(707,132)"/>
<path d="M0 0 C2.31 0.33 4.62 0.66 7 1 C6.67 1.66 6.34 2.32 6 3 C5.39671875 3.13277344 4.7934375 3.26554688 4.171875 3.40234375 C1.38264264 4.16988431 0.22294776 5.47572833 -1.75 7.5625 C-2.36359375 8.20316406 -2.9771875 8.84382812 -3.609375 9.50390625 C-4.06828125 9.99761719 -4.5271875 10.49132812 -5 11 C-5.6484375 9.1640625 -5.6484375 9.1640625 -6 7 C-3.625 4.375 -3.625 4.375 -1 2 C-0.67 1.34 -0.34 0.68 0 0 Z " fill="#D0DAF1" transform="translate(760,770)"/>
<path d="M0 0 C0.66 0.33 1.32 0.66 2 1 C1.96744792 2.98567708 1.93489583 4.97135417 1.90234375 6.95703125 C1.91736783 9.20305461 1.91736783 9.20305461 3 12 C0.13275314 11.42655063 -0.8614515 11.1385485 -3 9 C-2.56237193 5.82719649 -1.22638495 2.94332389 0 0 Z " fill="#2C4BA9" transform="translate(785,754)"/>
<path d="M0 0 C0.515625 0.350625 1.03125 0.70125 1.5625 1.0625 C4.94006667 2.3615641 7.50468057 1.67217681 11 1 C11 1.66 11 2.32 11 3 C12.32 3.66 13.64 4.32 15 5 C14.67 5.66 14.34 6.32 14 7 C8.57107935 6.56568635 5.29203296 5.37231161 1 2 C0.67 1.34 0.34 0.68 0 0 Z " fill="#707683" transform="translate(128,207)"/>
<path d="M0 0 C0.66 0 1.32 0 2 0 C2.41894531 0.63421875 2.83789062 1.2684375 3.26953125 1.921875 C5.56300977 4.67612009 7.19048073 4.75630316 10.6875 5.25 C11.68136719 5.39953125 12.67523438 5.5490625 13.69921875 5.703125 C14.45847656 5.80109375 15.21773437 5.8990625 16 6 C16.33 4.68 16.66 3.36 17 2 C19 5 19 5 19 8 C13.24873831 8.36710181 8.19058753 7.65227626 3 5 C0.9375 2.3125 0.9375 2.3125 0 0 Z " fill="#ABAAB3" transform="translate(133,198)"/>
<path d="M0 0 C4.875 3.75 4.875 3.75 6 6 C6.04022391 8.3329866 6.04320247 10.66706666 6 13 C5.01 13.495 5.01 13.495 4 14 C1 9.25 1 9.25 1 7 C1.66 7 2.32 7 3 7 C2.505 6.21625 2.01 5.4325 1.5 4.625 C0 2 0 2 0 0 Z " fill="#BBC5E1" transform="translate(800,781)"/>
<path d="M0 0 C1.134375 0.020625 2.26875 0.04125 3.4375 0.0625 C3.4375 1.7125 3.4375 3.3625 3.4375 5.0625 C1.1275 5.0625 -1.1825 5.0625 -3.5625 5.0625 C-4.125 3.125 -4.125 3.125 -4.5625 1.0625 C-3.5625 0.0625 -3.5625 0.0625 0 0 Z " fill="#C8CCCF" transform="translate(885.5625,720.9375)"/>
<path d="M0 0 C2.31 0 4.62 0 7 0 C7.33 1.65 7.66 3.3 8 5 C5.69 5 3.38 5 1 5 C0.67 3.35 0.34 1.7 0 0 Z " fill="#C2C7CB" transform="translate(213,297)"/>
<path d="M0 0 C2.475 0.495 2.475 0.495 5 1 C5 2.98 5 4.96 5 7 C3.35 7.33 1.7 7.66 0 8 C0 5.36 0 2.72 0 0 Z " fill="#DDE0E2" transform="translate(169,242)"/>
<path d="M0 0 C2 2 2 2 2 6 C-0.24973447 6.054138 -2.49984383 6.09285491 -4.75 6.125 C-6.00296875 6.14820313 -7.2559375 6.17140625 -8.546875 6.1953125 C-12 6 -12 6 -16 4 C-10.72 4 -5.44 4 0 4 C0 2.68 0 1.36 0 0 Z " fill="#A3A5AE" transform="translate(731,128)"/>
<path d="M0 0 C0.99 0 1.98 0 3 0 C3 0.66 3 1.32 3 2 C4.65 2.33 6.3 2.66 8 3 C8 3.66 8 4.32 8 5 C8.94875 5.309375 9.8975 5.61875 10.875 5.9375 C14 7 14 7 16 8 C16 8.66 16 9.32 16 10 C18.475 10.495 18.475 10.495 21 11 C18.50907189 12.24546405 17.58919267 11.7767578 15 11 C15 10.34 15 9.68 15 9 C13.906875 8.731875 12.81375 8.46375 11.6875 8.1875 C8.16076366 7.05177135 7.29591408 6.60899328 5 4 C3.33675599 2.99431758 1.67063747 1.99335201 0 1 C0 0.67 0 0.34 0 0 Z " fill="#3B539E" transform="translate(716,816)"/>
<path d="M0 0 C0.042721 1.66611905 0.04063832 3.33382885 0 5 C-1 6 -1 6 -4.0625 6.0625 C-5.5165625 6.0315625 -5.5165625 6.0315625 -7 6 C-6.625 3.5625 -6.625 3.5625 -6 1 C-4 0 -4 0 0 0 Z " fill="#D6D9DB" transform="translate(913,719)"/>
<path d="M0 0 C0.66 0.33 1.32 0.66 2 1 C-2.29 5.29 -6.58 9.58 -11 14 C-11 9.64373746 -8.80737475 7.21060201 -6 4 C-3.25 2.125 -3.25 2.125 -1 1 C-0.67 0.67 -0.34 0.34 0 0 Z " fill="#3853A7" transform="translate(720,699)"/>
<path d="M0 0 C0.78375 0.04125 1.5675 0.0825 2.375 0.125 C2.417721 1.79111905 2.41563832 3.45882885 2.375 5.125 C1.375 6.125 1.375 6.125 -1.1875 6.1875 C-2.3940625 6.1565625 -2.3940625 6.1565625 -3.625 6.125 C-4.25 4.25 -4.25 4.25 -4.625 2.125 C-2.625 0.125 -2.625 0.125 0 0 Z " fill="#DBDEE0" transform="translate(134.625,287.875)"/>
<path d="M0 0 C2.64 0.66 5.28 1.32 8 2 C8 1.34 8 0.68 8 0 C8.66 0 9.32 0 10 0 C10 0.66 10 1.32 10 2 C11.65 2.33 13.3 2.66 15 3 C15 3.66 15 4.32 15 5 C9.35211947 5.3457886 5.92430871 4.56064053 1 2 C0.67 1.34 0.34 0.68 0 0 Z " fill="#5E6776" transform="translate(705,136)"/>
<path d="M0 0 C1.65 0 3.3 0 5 0 C5 2.31 5 4.62 5 7 C3.35 7 1.7 7 0 7 C0 4.69 0 2.38 0 0 Z " fill="#D8DBDC" transform="translate(896,798)"/>
<path d="M0 0 C2.31 0 4.62 0 7 0 C7 1.65 7 3.3 7 5 C4.69 5 2.38 5 0 5 C0 3.35 0 1.7 0 0 Z " fill="#C1C6C9" transform="translate(864,720)"/>
<path d="M0 0 C1.9375 0.125 1.9375 0.125 4 1 C5.25 3.5625 5.25 3.5625 6 6 C3.36 5.67 0.72 5.34 -2 5 C-1.125 1.125 -1.125 1.125 0 0 Z " fill="#304BA1" transform="translate(763,772)"/>
<path d="M0 0 C1.65 0 3.3 0 5 0 C5 1.98 5 3.96 5 6 C3.35 6.33 1.7 6.66 0 7 C0 4.69 0 2.38 0 0 Z " fill="#C4C9CE" transform="translate(897,751)"/>
<path d="M0 0 C1.875 0.3125 1.875 0.3125 4 1 C6 4 6 4 6 7 C3.03 6.505 3.03 6.505 0 6 C-1.125 2.25 -1.125 2.25 0 0 Z " fill="#D5D8DB" transform="translate(915,740)"/>
<path d="M0 0 C0.33 0 0.66 0 1 0 C1.1831111 5.31022184 0.78539723 8.9588784 -1 14 C-1.44074654 16.6638527 -1.72193872 19.31207432 -2 22 C-2.33 22 -2.66 22 -3 22 C-3.25572352 5.88941855 -3.25572352 5.88941855 0 0 Z " fill="#3B55A0" transform="translate(694,734)"/>
<path d="M0 0 C0.66 0 1.32 0 2 0 C2 0.66 2 1.32 2 2 C3.65 2.33 5.3 2.66 7 3 C7 3.99 7 4.98 7 6 C4.36 6 1.72 6 -1 6 C-1.042721 4.33388095 -1.04063832 2.66617115 -1 1 C-0.67 0.67 -0.34 0.34 0 0 Z " fill="#B3BBC2" transform="translate(146,309)"/>
<path d="M0 0 C1.98 0 3.96 0 6 0 C6 1.65 6 3.3 6 5 C3.69 5 1.38 5 -1 5 C-0.67 3.35 -0.34 1.7 0 0 Z " fill="#D0D4D7" transform="translate(180,297)"/>
<path d="M0 0 C0.33 1.65 0.66 3.3 1 5 C-1.375 5.625 -1.375 5.625 -4 6 C-4.66 5.34 -5.32 4.68 -6 4 C-6 3.01 -6 2.02 -6 1 C-4 0 -4 0 0 0 Z " fill="#C4C9CD" transform="translate(150,291)"/>
<path d="M0 0 C1.65 0 3.3 0 5 0 C5.66 1.32 6.32 2.64 7 4 C5.02 4.99 5.02 4.99 3 6 C1.68 5.01 0.36 4.02 -1 3 C-0.67 2.01 -0.34 1.02 0 0 Z " fill="#D7D9DC" transform="translate(152,279)"/>
<path d="M0 0 C2.41696872 -0.05411124 4.83271787 -0.09372278 7.25 -0.125 C7.93191406 -0.14175781 8.61382813 -0.15851562 9.31640625 -0.17578125 C15.97242861 -0.24040283 15.97242861 -0.24040283 19 2 C19.75 4.625 19.75 4.625 20 7 C19.67 6.34 19.34 5.68 19 5 C17.68352881 4.30062468 16.34977849 3.63270867 15 3 C14.67 2.67 14.34 2.34 14 2 C11.81707226 1.76518307 9.62796826 1.58636677 7.4375 1.4375 C6.23996094 1.35371094 5.04242187 1.26992188 3.80859375 1.18359375 C2.88175781 1.12300781 1.95492187 1.06242188 1 1 C0.67 1.66 0.34 2.32 0 3 C0 2.01 0 1.02 0 0 Z " fill="#848895" transform="translate(905,819)"/>
<path d="M0 0 C0 3.25811062 -0.5522078 5.10441559 -2 8 C-2.99 8.33 -3.98 8.66 -5 9 C-5.28875 9.61875 -5.5775 10.2375 -5.875 10.875 C-7.35958123 13.67920898 -9.23974247 14.54723288 -12 16 C-12 15.34 -12 14.68 -12 14 C-11.319375 13.505 -10.63875 13.01 -9.9375 12.5 C-5.75625237 8.94149138 -3.01579683 4.55411394 0 0 Z " fill="#3F5696" transform="translate(827,798)"/>
<path d="M0 0 C1.98 0 3.96 0 6 0 C6 0.66 6 1.32 6 2 C11.94 1.505 11.94 1.505 18 1 C17.67 1.66 17.34 2.32 17 3 C11.86984932 4.71005023 6.86642661 4.87607779 1.9375 2.5625 C1.298125 2.046875 0.65875 1.53125 0 1 C0 0.67 0 0.34 0 0 Z " fill="#868B97" transform="translate(456,565)"/>
<path d="M0 0 C0.042721 1.66611905 0.04063832 3.33382885 0 5 C-1 6 -1 6 -3.5625 6.0625 C-4.7690625 6.0315625 -4.7690625 6.0315625 -6 6 C-6 4.35 -6 2.7 -6 1 C-4 0 -4 0 0 0 Z " fill="#ABB1B9" transform="translate(180,324)"/>
<path d="M0 0 C0.99 0.495 0.99 0.495 2 1 C1.67 3.31 1.34 5.62 1 8 C1.66 8 2.32 8 3 8 C3.125 13.75 3.125 13.75 2 16 C1.34 16 0.68 16 0 16 C0 10.72 0 5.44 0 0 Z " fill="#434A57" transform="translate(234,360)"/>
<path d="M0 0 C1.32 0 2.64 0 4 0 C4 2.64 4 5.28 4 8 C2.68 8 1.36 8 0 8 C0 5.36 0 2.72 0 0 Z " fill="#C1C3C7" transform="translate(169,258)"/>
<path d="M0 0 C0.7425 0.495 0.7425 0.495 1.5 1 C-1.7421772 2.6210886 -5.2082525 1.90555177 -8.7734375 1.7421875 C-11.91590295 2.03932607 -13.19232038 2.91105779 -15.5 5 C-15.17012361 2.52592708 -14.92027913 1.3362233 -12.9375 -0.25 C-8.58307125 -1.58982423 -4.24877759 -1.69951104 0 0 Z " fill="#828796" transform="translate(682.5,245)"/>
<path d="M0 0 C0.66 0.33 1.32 0.66 2 1 C-4.44736842 7.63157895 -4.44736842 7.63157895 -8 10 C-10.15234375 9.6015625 -10.15234375 9.6015625 -12 9 C-11.21753906 8.43410156 -10.43507813 7.86820313 -9.62890625 7.28515625 C-8.61699219 6.55167969 -7.60507812 5.81820312 -6.5625 5.0625 C-5.55316406 4.33160156 -4.54382813 3.60070312 -3.50390625 2.84765625 C-1.17707392 1.22678115 -1.17707392 1.22678115 0 0 Z " fill="#43578A" transform="translate(808,818)"/>
<path d="M0 0 C0.33 0.66 0.66 1.32 1 2 C1.66 2.33 2.32 2.66 3 3 C1.625 4.5 1.625 4.5 0 6 C-0.66 6 -1.32 6 -2 6 C-2.28875 6.639375 -2.5775 7.27875 -2.875 7.9375 C-4 10 -4 10 -6 11 C-5.55530671 5.96014269 -3.28656638 3.62365012 0 0 Z " fill="#4B66B6" transform="translate(744,761)"/>
<path d="M0 0 C1.2065625 0.0309375 1.2065625 0.0309375 2.4375 0.0625 C3 2 3 2 3.4375 4.0625 C2.4375 5.0625 2.4375 5.0625 -0.125 5.125 C-1.3315625 5.0940625 -1.3315625 5.0940625 -2.5625 5.0625 C-3.125 3.125 -3.125 3.125 -3.5625 1.0625 C-2.5625 0.0625 -2.5625 0.0625 0 0 Z " fill="#C8CACE" transform="translate(925.5625,713.9375)"/>
<path d="M0 0 C3.96 0 7.92 0 12 0 C12.3125 3.25 12.3125 3.25 12 7 C9.5 9.4375 9.5 9.4375 7 11 C6.34 10.67 5.68 10.34 5 10 C5.804375 9.2575 6.60875 8.515 7.4375 7.75 C10.31652886 5.10501953 10.31652886 5.10501953 11 1 C7.37 1 3.74 1 0 1 C0 0.67 0 0.34 0 0 Z " fill="#7E838D" transform="translate(760,119)"/>
<path d="M0 0 C1.67542976 0.28604898 3.34385343 0.61781233 5 1 C5.33 2.32 5.66 3.64 6 5 C3.69 5.33 1.38 5.66 -1 6 C-1.042721 4.33388095 -1.04063832 2.66617115 -1 1 C-0.67 0.67 -0.34 0.34 0 0 Z " fill="#4B5363" transform="translate(797,829)"/>
<path d="M0 0 C1.65 0 3.3 0 5 0 C5 1.98 5 3.96 5 6 C3.35 6 1.7 6 0 6 C0 4.02 0 2.04 0 0 Z " fill="#CFD2D2" transform="translate(168,228)"/>
<path d="M0 0 C0.96099609 0.30744141 0.96099609 0.30744141 1.94140625 0.62109375 C6.97287851 2.18827364 11.75988003 3.43042174 17 4 C17 4.33 17 4.66 17 5 C10.565 5.495 10.565 5.495 4 6 C4 5.01 4 4.02 4 3 C2.68 2.67 1.36 2.34 0 2 C0 1.34 0 0.68 0 0 Z " fill="#686B79" transform="translate(135,202)"/>
<path d="M0 0 C1.26328125 0.01804688 2.5265625 0.03609375 3.828125 0.0546875 C4.79234375 0.07789063 5.7565625 0.10109375 6.75 0.125 C6.75 0.455 6.75 0.785 6.75 1.125 C2.79 1.125 -1.17 1.125 -5.25 1.125 C-5.25 1.785 -5.25 2.445 -5.25 3.125 C-7.56 3.785 -9.87 4.445 -12.25 5.125 C-11.25 2.125 -11.25 2.125 -9.640625 0.9453125 C-6.36014949 -0.18034086 -3.45833037 -0.06404316 0 0 Z " fill="#9C9CA6" transform="translate(178.25,197.875)"/>
<path d="M0 0 C1.65 0 3.3 0 5 0 C5 0.99 5 1.98 5 3 C6.32 3 7.64 3 9 3 C9 3.66 9 4.32 9 5 C6.69 5 4.38 5 2 5 C2 4.34 2 3.68 2 3 C1.34 3 0.68 3 0 3 C0 2.01 0 1.02 0 0 Z " fill="#D6D5DA" transform="translate(133,195)"/>
<path d="M0 0 C1.60917445 4.02293613 0.19487774 6.99364521 -1 11 C-1.16928543 13.79244045 -1.16928543 13.79244045 -1 16 C-1.66 16 -2.32 16 -3 16 C-3.02708567 14.39592672 -3.04643483 12.7917215 -3.0625 11.1875 C-3.07410156 10.29417969 -3.08570313 9.40085937 -3.09765625 8.48046875 C-3 6 -3 6 -2 3 C-1.34 3 -0.68 3 0 3 C0 2.01 0 1.02 0 0 Z " fill="#848B93" transform="translate(865,820)"/>
<path d="M0 0 C1.32 0 2.64 0 4 0 C4 2.31 4 4.62 4 7 C2.68 7 1.36 7 0 7 C0 4.69 0 2.38 0 0 Z " fill="#D2D5D8" transform="translate(897,767)"/>
<path d="M0 0 C2.97 0.495 2.97 0.495 6 1 C5.34 3.31 4.68 5.62 4 8 C3.67 7.01 3.34 6.02 3 5 C2.01 5 1.02 5 0 5 C0 3.35 0 1.7 0 0 Z " fill="#D5D8DA" transform="translate(231,297)"/>
<path d="M0 0 C0.66 0.33 1.32 0.66 2 1 C0.87895467 2.31587941 -0.24696965 3.62760353 -1.375 4.9375 C-2.00148438 5.66839844 -2.62796875 6.39929688 -3.2734375 7.15234375 C-5 9 -5 9 -7 10 C-7.66 10.99 -8.32 11.98 -9 13 C-8.67 11.35 -8.34 9.7 -8 8 C-7.34 8 -6.68 8 -6 8 C-5.9071875 7.13375 -5.9071875 7.13375 -5.8125 6.25 C-4.67972699 3.11309013 -2.65802405 1.90832496 0 0 Z " fill="#7F8591" transform="translate(666,238)"/>
<path d="M0 0 C3.68802044 1.22934015 4.72356973 2.93859378 7 6 C4.6875 6.6875 4.6875 6.6875 2 7 C0.125 5.8125 0.125 5.8125 -1 4 C-0.6875 1.8125 -0.6875 1.8125 0 0 Z " fill="#585D6F" transform="translate(708,127)"/>
<path d="M0 0 C1.32 0 2.64 0 4 0 C4 2.31 4 4.62 4 7 C2.68 6.67 1.36 6.34 0 6 C0 4.02 0 2.04 0 0 Z " fill="#D0D4D5" transform="translate(898,726)"/>
<path d="M0 0 C0.99 0 1.98 0 3 0 C3 2.31 3 4.62 3 7 C1.68 7 0.36 7 -1 7 C-1.04254356 5.00045254 -1.04080783 2.99958364 -1 1 C-0.67 0.67 -0.34 0.34 0 0 Z " fill="#CED0D4" transform="translate(898,706)"/>
<path d="M0 0 C0.66 0.33 1.32 0.66 2 1 C-0.87494471 4.98069267 -3.82117329 7.43571997 -8 10 C-8.66 9.67 -9.32 9.34 -10 9 C-6.7 6.03 -3.4 3.06 0 0 Z " fill="#757D8C" transform="translate(714,690)"/>
<path d="M0 0 C1.32 0 2.64 0 4 0 C4 2.31 4 4.62 4 7 C2.68 6.67 1.36 6.34 0 6 C0 4.02 0 2.04 0 0 Z " fill="#B9BDC1" transform="translate(169,274)"/>
<path d="M0 0 C0.66 0.99 1.32 1.98 2 3 C5.35503476 3.36558117 5.35503476 3.36558117 9.125 3.1875 C10.40632812 3.16042969 11.68765625 3.13335938 13.0078125 3.10546875 C13.99523437 3.07066406 14.98265625 3.03585937 16 3 C15.67 3.66 15.34 4.32 15 5 C9.72 5 4.44 5 -1 5 C-0.67 3.35 -0.34 1.7 0 0 Z " fill="#696E7C" transform="translate(872,824)"/>
<path d="M0 0 C-1 1.5625 -1 1.5625 -3 3 C-5.76614782 2.96726452 -8.26030547 2.49404328 -11 2 C-7.06425135 -0.62383243 -4.54354105 -1.51451368 0 0 Z " fill="#C9D3EA" transform="translate(738,797)"/>
<path d="M0 0 C1.45823212 -0.0270043 2.91660675 -0.04639787 4.375 -0.0625 C5.18710937 -0.07410156 5.99921875 -0.08570313 6.8359375 -0.09765625 C9 0 9 0 11 1 C11 1.99 11 2.98 11 4 C11.66 4.33 12.32 4.66 13 5 C8.39146203 4.27991594 4.32762591 2.68704061 0 1 C0 0.67 0 0.34 0 0 Z " fill="#596074" transform="translate(739,279)"/>
<path d="M0 0 C4.29 0 8.58 0 13 0 C13 0.33 13 0.66 13 1 C9.7 1 6.4 1 3 1 C3.33 2.65 3.66 4.3 4 6 C3.34 6 2.68 6 2 6 C0 3 0 3 0 0 Z " fill="#C1C0C7" transform="translate(906,820)"/>
<path d="M0 0 C0.66 0.33 1.32 0.66 2 1 C2.36923077 7.4 2.36923077 7.4 0.5 10.4375 C0.005 10.953125 -0.49 11.46875 -1 12 C-1.66 11.67 -2.32 11.34 -3 11 C-2.690625 10.484375 -2.38125 9.96875 -2.0625 9.4375 C-0.70940713 6.33334577 -0.38640576 3.34884993 0 0 Z " fill="#314DA8" transform="translate(806,787)"/>
<path d="M0 0 C5.61 0.33 11.22 0.66 17 1 C17 1.33 17 1.66 17 2 C8.585 2.495 8.585 2.495 0 3 C0 2.01 0 1.02 0 0 Z " fill="#5A606F" transform="translate(716,133)"/>
<path d="M0 0 C0.66 0.33 1.32 0.66 2 1 C0.3790787 2.17232685 -1.24686833 3.3377077 -2.875 4.5 C-3.77992188 5.1496875 -4.68484375 5.799375 -5.6171875 6.46875 C-8 8 -8 8 -10 8 C-10 6 -10 6 -8.9375 4.5625 C-6.1868376 2.34422387 -3.30476731 1.20173357 0 0 Z " fill="#3A56A4" transform="translate(804,820)"/>
<path d="M0 0 C4.29 0 8.58 0 13 0 C12.67 1.32 12.34 2.64 12 4 C11.01 4.495 11.01 4.495 10 5 C9.67 4.01 9.34 3.02 9 2 C6.03 1.67 3.06 1.34 0 1 C0 0.67 0 0.34 0 0 Z " fill="#A2A5B0" transform="translate(881,818)"/>
<path d="M0 0 C1.08557659 3.24215827 0.94015194 5.02321809 -0.3125 8.1875 C-0.57675781 8.88230469 -0.84101562 9.57710937 -1.11328125 10.29296875 C-2 12 -2 12 -4 13 C-3.27991594 8.39146203 -1.68704061 4.32762591 0 0 Z " fill="#44578F" transform="translate(837,777)"/>
<path d="M0 0 C0.66 0.33 1.32 0.66 2 1 C2.625 3.0625 2.625 3.0625 3 5 C0.69 5 -1.62 5 -4 5 C-2.25 1.125 -2.25 1.125 0 0 Z " fill="#CACACB" transform="translate(170,201)"/>
<path d="M0 0 C5.875 4.625 5.875 4.625 7 8 C5.1875 7.8125 5.1875 7.8125 3 7 C0 2.82142857 0 2.82142857 0 0 Z " fill="#C6D3E3" transform="translate(782,763)"/>
<path d="M0 0 C3.3 0.99 6.6 1.98 10 3 C9.67 3.99 9.34 4.98 9 6 C5.06326356 4.68775452 2.77280706 3.08089673 0 0 Z " fill="#6E7785" transform="translate(251,760)"/>
<path d="M0 0 C1.65 0 3.3 0 5 0 C4.67 1.32 4.34 2.64 4 4 C2.35 4 0.7 4 -1 4 C-0.67 2.68 -0.34 1.36 0 0 Z " fill="#CDD0D3" transform="translate(912,695)"/>
<path d="M0 0 C-0.8125 1.9375 -0.8125 1.9375 -2 4 C-2.99 4.33 -3.98 4.66 -5 5 C-5 6.98 -5 8.96 -5 11 C-5.33 11 -5.66 11 -6 11 C-6.48951049 4.63636364 -6.48951049 4.63636364 -4.125 1.5625 C-2 0 -2 0 0 0 Z " fill="#ACBBE1" transform="translate(729,719)"/>
<path d="M0 0 C0.99 0.66 1.98 1.32 3 2 C2.34 2 1.68 2 1 2 C0.34 5.3 -0.32 8.6 -1 12 C-1.33 12 -1.66 12 -2 12 C-2.59732819 9.23735711 -3 6.83967231 -3 4 C-2.01 3.67 -1.02 3.34 0 3 C0 2.01 0 1.02 0 0 Z " fill="#3E59AF" transform="translate(724,718)"/>
<path d="M0 0 C-0.69867188 0.27714844 -1.39734375 0.55429687 -2.1171875 0.83984375 C-3.02726562 1.20207031 -3.93734375 1.56429687 -4.875 1.9375 C-5.77992188 2.29714844 -6.68484375 2.65679688 -7.6171875 3.02734375 C-9.96137667 3.94901262 -9.96137667 3.94901262 -12 5 C-12.66 4.34 -13.32 3.68 -14 3 C-12.42274653 2.29866401 -10.83788667 1.614417 -9.25 0.9375 C-7.92742187 0.36322266 -7.92742187 0.36322266 -6.578125 -0.22265625 C-3.84743691 -1.04600008 -2.63098653 -0.9773992 0 0 Z " fill="#6E7482" transform="translate(491,586)"/>
<path d="M0 0 C1.32 0.33 2.64 0.66 4 1 C4 2.65 4 4.3 4 6 C3.01 6 2.02 6 1 6 C0.67 4.02 0.34 2.04 0 0 Z " fill="#C6C9CE" transform="translate(178,309)"/>
<path d="M0 0 C1 2 1 2 0.1875 4.5625 C-1 7 -1 7 -3 8 C-3.33 8.99 -3.66 9.98 -4 11 C-4.66 11 -5.32 11 -6 11 C-4.54955729 6.89041233 -2.48889248 3.56741255 0 0 Z " fill="#78818B" transform="translate(243,288)"/>
<path d="M0 0 C3.63 0.33 7.26 0.66 11 1 C11 1.33 11 1.66 11 2 C8.03 2 5.06 2 2 2 C1.67 2.99 1.34 3.98 1 5 C0.67 3.35 0.34 1.7 0 0 Z " fill="#9E9EAE" transform="translate(131,193)"/>
<path d="M0 0 C1.65 0 3.3 0 5 0 C5.33 1.98 5.66 3.96 6 6 C3.37812506 4.95125002 2.20628639 4.35068687 0.75 1.875 C0.5025 1.25625 0.255 0.6375 0 0 Z " fill="#B9BAC1" transform="translate(709,126)"/>
<path d="M0 0 C0.66 0.33 1.32 0.66 2 1 C1.04882866 2.1725131 0.08882991 3.33787015 -0.875 4.5 C-1.40867187 5.1496875 -1.94234375 5.799375 -2.4921875 6.46875 C-2.98976563 6.9740625 -3.48734375 7.479375 -4 8 C-4.66 8 -5.32 8 -6 8 C-5.65120368 4.74456771 -4.97866739 3.98126893 -2.4375 1.75 C-1.633125 1.1725 -0.82875 0.595 0 0 Z " fill="#2E4AA6" transform="translate(747,790)"/>
<path d="M0 0 C1.32 0 2.64 0 4 0 C4 1.65 4 3.3 4 5 C2.68 5 1.36 5 0 5 C0 3.35 0 1.7 0 0 Z " fill="#C5C9CB" transform="translate(898,737)"/>
<path d="M0 0 C-0.33 0.66 -0.66 1.32 -1 2 C-4.34373475 1.44271087 -7.03312999 0.64826111 -10 -1 C-6.18510326 -2.46726798 -3.70988378 -1.43336419 0 0 Z " fill="#2F4BA6" transform="translate(740,716)"/>
<path d="M0 0 C1.32 0 2.64 0 4 0 C3.67 1.32 3.34 2.64 3 4 C1.35 4 -0.3 4 -2 4 C-1.34 2.68 -0.68 1.36 0 0 Z " fill="#CACDD0" transform="translate(904,695)"/>
<path d="M0 0 C0.53625 0.2475 1.0725 0.495 1.625 0.75 C-3.79038462 4.81153846 -3.79038462 4.81153846 -6.75 4.5 C-7.28625 4.2525 -7.8225 4.005 -8.375 3.75 C-2.95961538 -0.31153846 -2.95961538 -0.31153846 0 0 Z " fill="#42589C" transform="translate(732.375,691.25)"/>
<path d="M0 0 C0.99 0.33 1.98 0.66 3 1 C2.67 2.32 2.34 3.64 2 5 C0.35 4.67 -1.3 4.34 -3 4 C-2.67 3.01 -2.34 2.02 -2 1 C-1.34 0.67 -0.68 0.34 0 0 Z " fill="#FAFAFA" transform="translate(463,617)"/>
<path d="M0 0 C1.98 1.65 3.96 3.3 6 5 C5 7 5 7 3 8 C0 2.25 0 2.25 0 0 Z " fill="#485783" transform="translate(705,806)"/>
<path d="M0 0 C0.99 0 1.98 0 3 0 C3 1.98 3 3.96 3 6 C2.01 6 1.02 6 0 6 C0 4.02 0 2.04 0 0 Z " fill="#D2D7DA" transform="translate(897,783)"/>
<path d="M0 0 C0.99 0 1.98 0 3 0 C3 1.98 3 3.96 3 6 C2.01 6 1.02 6 0 6 C0 4.02 0 2.04 0 0 Z " fill="#CED1D1" transform="translate(168,289)"/>
<path d="M0 0 C0.99 0 1.98 0 3 0 C3 1.98 3 3.96 3 6 C2.01 6 1.02 6 0 6 C0 4.02 0 2.04 0 0 Z " fill="#BEC1C5" transform="translate(169,243)"/>
<path d="M0 0 C3.11198065 1.49836105 6.0534615 3.19933758 9 5 C8.01 5.33 7.02 5.66 6 6 C2.8125 3.625 2.8125 3.625 0 1 C0 0.67 0 0.34 0 0 Z " fill="#455483" transform="translate(714,816)"/>
<path d="M0 0 C0.99 0 1.98 0 3 0 C2.625 1.9375 2.625 1.9375 2 4 C1.01 4.495 1.01 4.495 0 5 C-0.66 4.67 -1.32 4.34 -2 4 C-1.34 2.68 -0.68 1.36 0 0 Z " fill="#414A60" transform="translate(712,819)"/>
<path d="M0 0 C1.2065625 0.0309375 1.2065625 0.0309375 2.4375 0.0625 C0.7875 1.7125 -0.8625 3.3625 -2.5625 5.0625 C-3.125 3.125 -3.125 3.125 -3.5625 1.0625 C-2.5625 0.0625 -2.5625 0.0625 0 0 Z " fill="#D1DDEE" transform="translate(751.5625,780.9375)"/>
<path d="M0 0 C0 3 0 3 -1 6 C-3.0625 7.1875 -3.0625 7.1875 -5 8 C-4.45773019 4.20411134 -2.79872437 2.52788007 0 0 Z " fill="#CCD6E9" transform="translate(781,729)"/>
<path d="M0 0 C0.99 0.33 1.98 0.66 3 1 C2.67 2.32 2.34 3.64 2 5 C1.01 5 0.02 5 -1 5 C-1.33 3.68 -1.66 2.36 -2 1 C-1.34 0.67 -0.68 0.34 0 0 Z " fill="#324EA5" transform="translate(789,715)"/>
<path d="M0 0 C1.32 0.33 2.64 0.66 4 1 C4 2.32 4 3.64 4 5 C4.99 5.33 5.98 5.66 7 6 C6.67 6.66 6.34 7.32 6 8 C1.125 3.375 1.125 3.375 0 0 Z " fill="#4E597C" transform="translate(819,705)"/>
<path d="M0 0 C1.32 1.32 2.64 2.64 4 4 C2.02 4.33 0.04 4.66 -2 5 C-2 4.01 -2 3.02 -2 2 C-1.34 2 -0.68 2 0 2 C0 1.34 0 0.68 0 0 Z " fill="#5F6776" transform="translate(553,600)"/>
<path d="M0 0 C1.65 0 3.3 0 5 0 C5 0.99 5 1.98 5 3 C3.02 3 1.04 3 -1 3 C-0.67 2.01 -0.34 1.02 0 0 Z " fill="#DBDADC" transform="translate(724,129)"/>
<path d="M0 0 C2.31 0 4.62 0 7 0 C7 1.32 7 2.64 7 4 C4.69 3.34 2.38 2.68 0 2 C0 1.34 0 0.68 0 0 Z " fill="#717684" transform="translate(720,119)"/>
<path d="M0 0 C2.475 0.99 2.475 0.99 5 2 C2.61426621 3.89213369 0.92824652 5.02391783 -2 6 C-2.33 5.34 -2.66 4.68 -3 4 C-2.34 4 -1.68 4 -1 4 C-0.67 2.68 -0.34 1.36 0 0 Z " fill="#5F6572" transform="translate(751,118)"/>
</svg>
